<svg width="689" height="482" viewBox="0 0 689 482" fill="none" xmlns="http://www.w3.org/2000/svg">
<circle cx="523.5" cy="154.5" r="154.5" fill="#D9D9D9"/>
<path fill-rule="evenodd" clip-rule="evenodd" d="M434.742 118.002C448.283 118.128 460.362 126.281 464.783 138.956C469.476 152.41 466.932 168.284 455.103 176.371C443.925 184.013 429.679 178.405 418.734 170.438C408.033 162.649 399.063 150.967 402.906 138.378C406.948 125.137 420.773 117.871 434.742 118.002Z" fill="#C4C4C4"/>
<mask id="mask0_3_158" style="mask-type:alpha" maskUnits="userSpaceOnUse" x="402" y="118" width="65" height="62">
<path fill-rule="evenodd" clip-rule="evenodd" d="M434.742 118.002C448.283 118.128 460.362 126.281 464.783 138.956C469.476 152.41 466.932 168.284 455.103 176.371C443.925 184.013 429.679 178.405 418.734 170.438C408.033 162.649 399.063 150.967 402.906 138.378C406.948 125.137 420.773 117.871 434.742 118.002Z" fill="#C4C4C4"/>
</mask>
<g mask="url(#mask0_3_158)">
<path d="M466.5 147.5C461.3 117.5 430.667 118 416 122L429 106L473.5 127.5L466.5 147.5Z" fill="#BFBDBD"/>
</g>
<path fill-rule="evenodd" clip-rule="evenodd" d="M447.768 54.0008C455.828 54.0619 463.975 57.787 466.397 65.5032C468.765 73.0497 463.822 80.297 457.505 85.0297C450.855 90.0119 442.181 93.4587 435.302 88.7992C427.808 83.7228 425.194 73.7534 428.253 65.2143C431.057 57.3874 439.481 53.9381 447.768 54.0008Z" fill="#C4C4C4"/>
<mask id="mask1_3_158" style="mask-type:alpha" maskUnits="userSpaceOnUse" x="427" y="54" width="40" height="37">
<path fill-rule="evenodd" clip-rule="evenodd" d="M447.768 54.0008C455.828 54.0619 463.975 57.787 466.397 65.5032C468.765 73.0497 463.822 80.297 457.505 85.0297C450.855 90.0119 442.181 93.4587 435.302 88.7992C427.808 83.7228 425.194 73.7534 428.253 65.2143C431.057 57.3874 439.481 53.9381 447.768 54.0008Z" fill="#C4C4C4"/>
</mask>
<g mask="url(#mask1_3_158)">
<path d="M449.5 45.5L437.5 56C451 54 465.351 57 466.5 72L475 64L449.5 45.5Z" fill="#BFBDBD"/>
</g>
<path fill-rule="evenodd" clip-rule="evenodd" d="M492.787 79.0004C487.671 79.0488 484.147 83.5738 482.643 88.448C481.223 93.0487 482.078 98.2345 485.973 101.081C489.915 103.961 495.283 103.445 499.225 100.565C503.116 97.724 504.917 92.858 503.542 88.2503C502.048 83.2494 498.022 78.9509 492.787 79.0004Z" fill="#C4C4C4"/>
<mask id="mask2_3_158" style="mask-type:alpha" maskUnits="userSpaceOnUse" x="482" y="79" width="22" height="24">
<path fill-rule="evenodd" clip-rule="evenodd" d="M492.787 79.0004C487.671 79.0488 484.147 83.5738 482.643 88.448C481.223 93.0487 482.078 98.2345 485.973 101.081C489.915 103.961 495.283 103.445 499.225 100.565C503.116 97.724 504.917 92.858 503.542 88.2503C502.048 83.2494 498.022 78.9509 492.787 79.0004Z" fill="#C4C4C4"/>
</mask>
<g mask="url(#mask2_3_158)">
<path d="M491 74.5L485.5 83C496.3 77.8 502.333 86.8333 504 92L513 84L491 74.5Z" fill="#BFBDBD"/>
</g>
<path fill-rule="evenodd" clip-rule="evenodd" d="M578.504 251.977C585.25 251.701 590.89 247.133 593.024 240.623C595.212 233.947 593.759 226.45 588.281 222.149C582.279 217.437 573.998 216.412 567.747 220.776C560.976 225.504 557.167 234.097 559.884 241.977C562.45 249.422 570.75 252.293 578.504 251.977Z" fill="#C4C4C4"/>
<mask id="mask3_3_158" style="mask-type:alpha" maskUnits="userSpaceOnUse" x="559" y="218" width="35" height="34">
<path fill-rule="evenodd" clip-rule="evenodd" d="M578.504 251.977C585.25 251.701 590.89 247.133 593.024 240.623C595.212 233.947 593.759 226.45 588.281 222.149C582.279 217.437 573.998 216.412 567.747 220.776C560.976 225.504 557.167 234.097 559.884 241.977C562.45 249.422 570.75 252.293 578.504 251.977Z" fill="#C4C4C4"/>
</mask>
<g mask="url(#mask3_3_158)">
<path d="M576 209L565 222C583 214 592.167 227 594.5 234.5L605 228.5L576 209Z" fill="#BFBDBD"/>
</g>
<path fill-rule="evenodd" clip-rule="evenodd" d="M606.031 69.0058C612.748 68.8349 619.35 72.4642 621.407 78.9648C623.446 85.4113 620.002 92.062 614.561 95.9712C609.352 99.7138 602.386 100.168 597.253 96.3186C592.229 92.5505 590.917 85.7227 592.855 79.691C594.784 73.6901 599.821 69.1637 606.031 69.0058Z" fill="#C4C4C4"/>
<mask id="mask4_3_158" style="mask-type:alpha" maskUnits="userSpaceOnUse" x="592" y="69" width="30" height="30">
<path fill-rule="evenodd" clip-rule="evenodd" d="M606.031 69.0058C612.748 68.8349 619.35 72.4642 621.407 78.9648C623.446 85.4113 620.002 92.062 614.561 95.9712C609.352 99.7138 602.386 100.168 597.253 96.3186C592.229 92.5505 590.917 85.7227 592.855 79.691C594.784 73.6901 599.821 69.1637 606.031 69.0058Z" fill="#C4C4C4"/>
</mask>
<g mask="url(#mask4_3_158)">
<path d="M602.5 64.5L598 72C612.4 68 620 77 622 82L627 73.5L602.5 64.5Z" fill="#BFBDBD"/>
</g>
<rect x="334.22" y="245.509" width="21.3734" height="221" transform="rotate(-7.9385 334.22 245.509)" fill="#4E4E5A"/>
<path d="M465.483 245.611L223.177 280.16L219.516 280.682L216.407 274.594C219.557 272.239 225.519 267.252 224.165 266.139C222.473 264.747 219.316 263.564 219.82 261.86C220.223 260.496 221.712 259.413 222.406 259.041L217.054 258.172L210.959 220.666L227.615 211.759C221.454 210.46 209.088 207.542 208.905 206.262C208.449 203.061 208.721 187.508 208.914 180.132C290.339 167.978 453.572 144.268 455.109 146.661C457.029 149.654 456.925 185.594 458.732 187.786C460.538 189.978 467.469 191.439 466.119 192.448C465.039 193.255 461.657 196.078 460.101 197.389L465.064 200.764L439.623 210.923L465.654 215.376L460.025 217.812C460.513 217.742 462.144 218 464.76 219.586C467.376 221.173 466.332 237.597 465.483 245.611Z" fill="#44444F"/>
<path d="M299.972 217.022C299.353 217.109 298.985 216.853 298.87 216.253L298.055 208.392C298.012 208.083 298.174 207.886 298.541 207.803L301.44 207.209C301.765 207.164 301.952 207.319 302.002 207.675L302.372 210.155C304.299 210.28 306.291 210.199 308.349 209.911C310.423 209.622 311.927 208.867 312.861 207.648C313.808 206.411 314.129 204.702 313.824 202.52C313.552 200.57 312.862 199.136 311.756 198.218C310.702 197.34 309.518 196.993 308.202 197.176C306.221 197.453 304.665 197.773 303.532 198.137C301.904 198.68 300.982 198.967 300.765 198.997C300.471 199.038 300.183 198.897 299.902 198.573L297.311 195.788L297.549 180.727C297.56 180.236 297.743 179.966 298.099 179.917L309.908 178.905L309.762 177.86C309.713 177.505 309.855 177.28 310.189 177.186L313.114 176.445C313.408 176.404 313.596 176.56 313.676 176.911L315.137 184.99C315.156 185.24 314.997 185.404 314.661 185.482L311.414 186.291C310.764 186.382 310.397 186.126 310.312 185.522L310.236 183.285L302.112 184.42L302.184 194.586C304.541 193.499 306.532 192.843 308.156 192.615C309.797 192.386 311.223 192.431 312.435 192.751C313.663 193.069 314.718 193.623 315.602 194.415C317.354 196 318.459 198.433 318.918 201.713C319.424 205.334 318.824 208.211 317.118 210.342C315.559 212.28 313.154 213.476 309.905 213.93C307.8 214.224 306.285 214.334 305.36 214.258C304.449 214.18 303.745 214.105 303.246 214.033L303.694 215.721C303.729 215.969 303.571 216.133 303.219 216.214L299.972 217.022ZM325.72 202.632C325.028 200.615 324.527 198.5 324.218 196.287C323.906 194.059 323.682 192.118 323.546 190.465C323.409 188.811 323.372 187.247 323.434 185.771C323.509 184.277 323.711 182.9 324.04 181.639C324.366 180.363 324.879 179.234 325.578 178.253C327.025 176.189 329.381 174.929 332.646 174.473C339.208 173.556 343.285 178.8 344.879 190.204C345.794 196.75 345.662 201.62 344.484 204.814C343.216 208.273 340.524 210.29 336.408 210.865C331.44 211.559 327.878 208.815 325.72 202.632ZM336.384 205.615C337.544 205.452 338.417 204.983 339.003 204.207C339.602 203.414 339.99 202.35 340.166 201.016C340.453 198.893 340.242 195.294 339.533 190.218C338.968 186.179 338.208 183.39 337.251 181.852C336.249 180.209 334.741 179.528 332.73 179.81C331.616 179.965 330.733 180.309 330.082 180.842C329.428 181.36 328.984 182.187 328.748 183.324C328.316 185.309 328.5 189.165 329.3 194.89C329.845 198.79 330.576 201.536 331.492 203.127C332.618 205.084 334.248 205.913 336.384 205.615ZM353.435 198.759C352.743 196.741 352.242 194.626 351.933 192.413C351.621 190.185 351.397 188.244 351.261 186.591C351.124 184.938 351.087 183.373 351.149 181.897C351.224 180.404 351.426 179.027 351.755 177.766C352.081 176.49 352.594 175.361 353.293 174.38C354.74 172.316 357.096 171.056 360.361 170.599C366.923 169.682 371 174.926 372.594 186.331C373.509 192.877 373.377 197.746 372.199 200.94C370.931 204.399 368.239 206.416 364.123 206.991C359.155 207.686 355.593 204.941 353.435 198.759ZM364.099 201.741C365.259 201.579 366.132 201.11 366.718 200.334C367.317 199.54 367.705 198.476 367.881 197.142C368.168 195.019 367.957 191.42 367.248 186.344C366.683 182.306 365.923 179.517 364.966 177.978C363.964 176.336 362.456 175.655 360.445 175.936C359.331 176.092 358.448 176.436 357.797 176.969C357.143 177.486 356.699 178.313 356.463 179.451C356.031 181.436 356.215 185.291 357.015 191.017C357.56 194.916 358.291 197.662 359.207 199.254C360.333 201.21 361.963 202.04 364.099 201.741ZM254.998 261.654C254.172 262.064 253.098 262.361 251.778 262.546C250.457 262.73 248.866 262.784 247.004 262.708L247.286 263.931C247.311 264.116 247.206 264.226 246.969 264.259L244.318 264.708C243.923 264.743 243.678 264.572 243.583 264.196L242.158 258.289C242.13 258.083 242.238 257.952 242.482 257.897L245.476 257.194C245.672 257.167 245.797 257.271 245.851 257.505L246.403 259.984C247.91 259.931 249.401 259.801 250.876 259.595C252.351 259.389 253.348 258.997 253.867 258.42C254.385 257.832 254.573 257.033 254.431 256.022C254.305 255.114 253.855 254.419 253.083 253.938C252.679 253.679 252.167 253.44 251.547 253.222L247.02 251.757C245.424 251.254 244.319 250.83 243.702 250.485C243.085 250.129 242.597 249.766 242.241 249.395C241.525 248.643 241.089 247.705 240.932 246.581C240.774 245.446 240.814 244.457 241.054 243.613C241.292 242.76 241.691 241.999 242.25 241.332C243.419 239.917 245.036 239.065 247.099 238.777C248.564 238.572 250.185 238.582 251.962 238.807C253.227 238.22 254.024 237.904 254.354 237.858C254.694 237.81 254.894 237.924 254.954 238.2L255.542 244.665C255.555 244.905 255.489 245.035 255.344 245.055L252.731 245.326C252.586 245.336 252.493 245.312 252.453 245.254C252.414 245.197 252.379 245.102 252.35 244.969L251.751 241.582C250.483 241.465 249.441 241.463 248.626 241.577C246.573 241.864 245.255 242.632 244.673 243.881C244.462 244.331 244.396 244.84 244.476 245.407C244.554 245.964 244.753 246.41 245.073 246.743C245.393 247.077 245.829 247.374 246.38 247.633C246.931 247.883 247.595 248.121 248.374 248.349L251.074 249.155C253.611 249.926 255.337 250.689 256.253 251.444C257.251 252.262 257.868 253.517 258.104 255.209C258.53 258.252 257.494 260.4 254.998 261.654ZM273.082 259.536C271.807 260.051 270.154 260.451 268.122 260.735C266.048 261.024 264.453 260.595 263.335 259.447C262.169 258.253 261.384 256.212 260.98 253.324C260.556 250.291 260.658 247.968 261.284 246.355C262.003 244.572 263.379 243.354 265.412 242.702C266.117 242.477 266.913 242.303 267.8 242.179C269.709 241.912 271.162 242.187 272.16 243.005C273.157 243.823 273.791 245.196 274.061 247.125C274.237 248.384 274.15 249.385 273.802 250.127C273.688 250.364 273.526 250.639 273.318 250.952C273.108 251.255 272.683 251.562 272.042 251.872C271.411 252.171 270.675 252.437 269.834 252.67C268.527 253.021 266.707 253.359 264.376 253.685C264.753 255.41 265.347 256.537 266.157 257.065C266.773 257.484 267.757 257.599 269.109 257.41C270.378 257.232 271.626 256.947 272.854 256.555L272.788 255.744C272.781 255.618 272.796 255.532 272.831 255.485C272.877 255.437 272.96 255.388 273.079 255.34L275.238 254.534C275.465 254.502 275.608 254.582 275.666 254.774C275.722 254.945 275.801 255.286 275.904 255.797C276.006 256.299 276.098 256.733 276.181 257.1C276.263 257.467 276.339 257.819 276.407 258.157L276.59 259.015C276.637 259.271 276.672 259.487 276.697 259.662C276.74 259.972 276.538 260.184 276.091 260.299L273.566 260.968C273.339 260.999 273.21 260.902 273.178 260.675L273.082 259.536ZM270.226 249.602C270.461 249.327 270.583 249.031 270.591 248.715C270.608 248.386 270.587 248.01 270.528 247.587C270.468 247.154 270.373 246.778 270.244 246.46C270.126 246.14 269.957 245.874 269.739 245.663C269.267 245.224 268.577 245.068 267.67 245.194C265.916 245.44 264.807 246.047 264.343 247.016C263.901 247.919 263.791 249.386 264.011 251.417C267.604 250.862 269.676 250.257 270.226 249.602ZM280.626 258.766C280.461 258.789 280.361 258.677 280.326 258.429L279.952 255.752C279.922 255.536 280.02 255.411 280.247 255.38L282.058 255.127L280.594 244.65L278.407 245.145C278.24 245.158 278.12 245.049 278.045 244.817L277.244 241.569C277.248 241.368 277.356 241.243 277.57 241.192L282.275 240.203C282.461 240.177 282.571 240.282 282.604 240.52L282.728 243.106C283.714 241.653 285.307 240.557 287.507 239.819C288.169 239.589 288.815 239.431 289.444 239.343C290.073 239.255 290.422 239.375 290.488 239.702L291.466 245.34C291.492 245.525 291.429 245.639 291.277 245.681L288.398 246.305C288.274 246.322 288.173 246.315 288.095 246.284C288.017 246.253 287.966 246.149 287.941 245.974L287.559 243.235C286.233 243.536 285.09 243.969 284.127 244.535L285.385 254.772L288.049 254.195C288.214 254.171 288.314 254.247 288.349 254.421L288.876 256.95C288.874 257.161 288.776 257.29 288.583 257.338L280.626 258.766ZM292.349 239.584C292.32 239.377 292.425 239.258 292.662 239.224L299.687 238.243C299.832 238.222 299.919 238.242 299.948 238.301C299.976 238.349 299.998 238.431 300.013 238.544L300.127 241.052C300.126 241.189 300.107 241.281 300.071 241.328C300.036 241.376 299.956 241.408 299.832 241.425L298.214 241.698L303.709 252.227L305.563 240.435L303.703 240.9C303.538 240.923 303.438 240.847 303.403 240.673L302.876 238.144C302.878 237.933 302.976 237.804 303.169 237.756L309.734 236.523C309.9 236.51 310 236.622 310.033 236.86L310.429 239.692C310.418 239.914 310.32 240.038 310.134 240.064L308.602 240.278L305.74 254.798C305.706 255.003 305.582 255.131 305.368 255.182L302.615 255.693C302.416 255.699 302.255 255.596 302.13 255.382L294.511 242.295L293.092 242.525C292.875 242.555 292.749 242.446 292.715 242.199L292.349 239.584ZM325.943 252.148C324.669 252.663 323.015 253.062 320.983 253.346C318.909 253.636 317.314 253.207 316.196 252.059C315.03 250.865 314.245 248.824 313.842 245.936C313.418 242.902 313.519 240.58 314.146 238.967C314.864 237.184 316.24 235.966 318.273 235.314C318.978 235.089 319.774 234.914 320.661 234.79C322.57 234.524 324.023 234.799 325.021 235.617C326.019 236.435 326.652 237.808 326.922 239.737C327.098 240.996 327.012 241.996 326.663 242.739C326.549 242.976 326.388 243.251 326.179 243.564C325.969 243.867 325.544 244.174 324.903 244.484C324.272 244.783 323.536 245.049 322.696 245.282C321.388 245.633 319.568 245.971 317.237 246.297C317.615 248.022 318.209 249.148 319.019 249.677C319.635 250.096 320.618 250.211 321.97 250.022C323.239 249.844 324.487 249.559 325.716 249.167L325.65 248.356C325.643 248.23 325.657 248.144 325.692 248.097C325.738 248.049 325.821 248 325.94 247.952L328.099 247.145C328.326 247.114 328.469 247.194 328.527 247.385C328.583 247.556 328.662 247.898 328.765 248.409C328.867 248.91 328.959 249.345 329.042 249.712C329.125 250.079 329.2 250.431 329.268 250.769L329.451 251.626C329.498 251.883 329.533 252.099 329.558 252.274C329.601 252.584 329.399 252.796 328.953 252.911L326.427 253.58C326.2 253.611 326.071 253.514 326.039 253.287L325.943 252.148ZM323.087 242.214C323.322 241.939 323.444 241.643 323.452 241.326C323.47 240.998 323.449 240.622 323.389 240.199C323.329 239.766 323.234 239.39 323.106 239.071C322.987 238.751 322.819 238.486 322.6 238.274C322.128 237.836 321.439 237.679 320.531 237.806C318.777 238.051 317.668 238.659 317.204 239.628C316.762 240.531 316.652 241.998 316.872 244.029C320.466 243.474 322.537 242.869 323.087 242.214ZM333.487 251.378C333.322 251.401 333.222 251.289 333.188 251.041L332.813 248.364C332.783 248.147 332.882 248.023 333.109 247.992L334.919 247.738L333.455 237.262L331.268 237.757C331.101 237.77 330.981 237.661 330.907 237.429L330.105 234.181C330.109 233.98 330.218 233.855 330.431 233.804L335.137 232.815C335.322 232.789 335.432 232.894 335.465 233.132L335.59 235.717C336.575 234.265 338.168 233.169 340.368 232.431C341.03 232.201 341.676 232.043 342.305 231.955C342.935 231.867 343.283 231.986 343.349 232.314L344.327 237.951C344.353 238.137 344.29 238.251 344.138 238.293L341.259 238.917C341.135 238.934 341.034 238.927 340.956 238.896C340.878 238.865 340.827 238.761 340.803 238.586L340.42 235.847C339.094 236.148 337.951 236.581 336.989 237.147L338.246 247.384L340.91 246.806C341.075 246.783 341.175 246.859 341.21 247.033L341.737 249.562C341.735 249.773 341.637 249.902 341.444 249.95L333.487 251.378ZM376.105 245.879C376.097 246.122 376.005 246.256 375.83 246.28L372.912 246.625C372.685 246.657 372.553 246.539 372.515 246.27L372.352 245.331L358.588 247.649C358.35 247.682 358.209 247.576 358.164 247.329L357.859 244.469C357.838 244.314 357.906 244.205 358.066 244.141L360.037 244.133L357.558 227.299L355.632 227.741C355.446 227.767 355.337 227.667 355.306 227.44L355.082 224.6C355.075 224.401 355.184 224.275 355.408 224.223L370.785 221.474C371.097 221.452 371.272 221.569 371.308 221.827L371.788 227.519C371.821 227.756 371.755 227.886 371.59 227.909L368.977 228.18C368.831 228.19 368.738 228.166 368.699 228.108C368.659 228.051 368.625 227.955 368.596 227.823L368.131 225.174L360.866 226.584L361.982 233.78L369.513 232.238C369.771 232.202 369.927 232.301 369.98 232.536L370.452 235.12C370.465 235.361 370.373 235.494 370.177 235.522L362.424 236.716L363.52 243.773L371.838 242.326L371.493 240.308C371.46 239.923 371.648 239.692 372.058 239.613L374.576 239.34C374.816 239.328 374.948 239.404 374.971 239.569L376.105 245.879ZM379.601 244.933C379.436 244.956 379.337 244.844 379.302 244.596L378.928 241.919C378.897 241.702 378.996 241.578 379.223 241.546L381.033 241.293L379.569 230.817L377.382 231.312C377.216 231.325 377.095 231.215 377.021 230.984L376.22 227.735C376.223 227.535 376.332 227.409 376.546 227.359L381.251 226.37C381.437 226.344 381.546 226.449 381.579 226.687L381.704 229.272C382.689 227.82 384.282 226.724 386.483 225.986C387.145 225.756 387.79 225.598 388.42 225.51C389.049 225.422 389.397 225.541 389.464 225.869L390.441 231.506C390.467 231.692 390.404 231.806 390.252 231.848L387.373 232.472C387.249 232.489 387.149 232.482 387.071 232.451C386.993 232.42 386.941 232.316 386.917 232.141L386.534 229.402C385.209 229.703 384.065 230.136 383.103 230.702L384.36 240.939L387.024 240.361C387.19 240.338 387.289 240.414 387.324 240.588L387.851 243.117C387.849 243.328 387.752 243.457 387.559 243.505L379.601 244.933ZM395.447 242.718C395.282 242.741 395.183 242.629 395.148 242.381L394.774 239.704C394.743 239.488 394.842 239.363 395.069 239.332L396.879 239.079L395.415 228.602L393.228 229.097C393.062 229.11 392.941 229.001 392.867 228.769L392.066 225.521C392.069 225.32 392.178 225.195 392.392 225.144L397.097 224.155C397.283 224.129 397.392 224.235 397.425 224.472L397.55 227.058C398.535 225.605 400.128 224.51 402.328 223.771C402.991 223.542 403.636 223.383 404.266 223.295C404.895 223.207 405.243 223.327 405.31 223.654L406.287 229.292C406.313 229.477 406.25 229.591 406.098 229.634L403.219 230.257C403.095 230.274 402.995 230.267 402.917 230.236C402.839 230.205 402.787 230.102 402.763 229.926L402.38 227.187C401.055 227.488 399.911 227.921 398.949 228.487L400.206 238.724L402.87 238.147C403.036 238.124 403.135 238.199 403.17 238.373L403.697 240.902C403.695 241.113 403.598 241.242 403.405 241.291L395.447 242.718ZM409.851 231.649C409.604 229.885 409.544 228.4 409.67 227.194C409.805 225.976 410.112 224.976 410.592 224.194C411.487 222.775 413.147 221.896 415.571 221.557C417.263 221.321 418.52 221.319 419.341 221.551C420.173 221.782 420.841 222.083 421.345 222.454C421.859 222.824 422.324 223.327 422.739 223.963C423.573 225.266 424.138 226.975 424.434 229.09C424.728 231.195 424.806 232.841 424.666 234.028C424.538 235.213 424.227 236.193 423.736 236.966C422.818 238.377 421.137 239.254 418.692 239.596C416.134 239.953 414.185 239.594 412.846 238.519C411.319 237.302 410.321 235.012 409.851 231.649ZM421.062 234.989C421.313 234.533 421.465 233.923 421.516 233.158C421.567 232.394 421.517 231.475 421.367 230.402C421.217 229.33 421.039 228.471 420.834 227.827C420.628 227.182 420.392 226.658 420.125 226.253C419.867 225.837 419.581 225.525 419.268 225.316C418.953 225.097 418.622 224.949 418.275 224.871C417.754 224.755 417.086 224.753 416.271 224.867C415.456 224.981 414.814 225.134 414.347 225.325C413.879 225.517 413.514 225.836 413.25 226.283C412.751 227.152 412.667 228.773 412.999 231.146C413.47 234.52 414.644 236.296 416.521 236.476C417.096 236.532 417.709 236.515 418.359 236.424C419.009 236.333 419.557 236.188 420.002 235.989C420.457 235.778 420.81 235.445 421.062 234.989ZM429.77 237.921C429.605 237.944 429.505 237.832 429.471 237.584L429.096 234.907C429.066 234.691 429.164 234.566 429.391 234.535L431.202 234.282L429.738 223.805L427.551 224.3C427.384 224.313 427.264 224.204 427.189 223.972L426.388 220.724C426.392 220.523 426.501 220.398 426.714 220.347L431.42 219.358C431.605 219.332 431.715 219.438 431.748 219.675L431.873 222.261C432.858 220.808 434.451 219.712 436.651 218.974C437.313 218.744 437.959 218.586 438.588 218.498C439.218 218.41 439.566 218.53 439.632 218.857L440.61 224.495C440.636 224.68 440.573 224.794 440.421 224.837L437.542 225.46C437.418 225.477 437.317 225.47 437.239 225.439C437.161 225.408 437.11 225.305 437.085 225.129L436.703 222.39C435.377 222.691 434.234 223.124 433.271 223.69L434.529 233.927L437.193 233.35C437.358 233.327 437.458 233.402 437.493 233.576L438.02 236.105C438.018 236.316 437.92 236.445 437.727 236.493L429.77 237.921Z" fill="#D9D9D9"/>
<path d="M533.5 458.5H497.5C497.167 456.167 496.7 450.3 497.5 445.5C498.5 439.5 498 413 497 403.5C496 394 488 391.5 482.5 389C477 386.5 464 386.5 456.5 383C449 379.5 446 355 446 348.5C446 342 441.5 297.5 446 283.5C450.5 269.5 457 270.5 464 272C471 273.5 480 282 474.5 301.5C469 321 473.5 346 475.5 350C477.5 354 484.5 364.5 492.5 355C500.5 345.5 497 306 496 299.5C495 293 493.5 231 496 217.5C498.5 204 510 201 514.5 200.5C519 200 526.5 206 528.5 212.5C530.5 219 533 238 529.5 249.5C526 261 522.5 306 524 309C525.5 312 540.5 316 543 305C545.5 294 538 265 540.5 252.5C543 240 552 241 553 241C554 241 563.5 245.5 567.5 257C571.5 268.5 563.5 324 563.5 329.5C563.5 335 553.5 343 547 339.5C540.5 336 533.5 340 529 346C524.5 352 527.5 383 529 409.5C530.2 430.7 532.5 451 533.5 458.5Z" fill="#71717A"/>
<path d="M123.482 460H96.9822C95.9822 452.5 94.0822 434.8 94.4822 424C94.9822 410.5 96.9822 390.5 97.4822 384.5C97.9823 378.5 97.4822 347 93.4822 343C89.4822 339 81.9822 342.5 77.4822 342C72.9822 341.5 68.4822 332.5 64.4822 326.5C60.4822 320.5 59.9822 285 59.4822 281.5C58.9822 278 56.9822 244.5 67.4822 241C77.9822 237.5 79.9822 239 82.4822 240.5C84.9822 242 83.9822 256.5 82.4822 263C80.9822 269.5 78.4822 304 79.9822 308.5C81.4822 313 93.9822 315.5 96.9822 308.5C99.9822 301.5 96.9822 285.5 96.9822 270.5C96.9822 260.192 94.4822 247 93.9822 236.5C93.4822 226 82.9822 188.5 84.9822 171.5C86.9822 154.5 97.4822 147.5 105.482 148C113.482 148.5 117.482 157.5 118.482 165.5C119.482 173.5 114.982 196.5 113.482 205C111.982 213.5 114.982 224.5 119.982 228C124.982 231.5 130.482 228.5 132.982 222.5C135.482 216.5 132.482 188 132.982 184C133.482 180 132.982 175 139.982 173.5C146.982 172 150.482 174.5 150.482 177C150.482 179.5 150.482 193.5 151.482 199.5C152.482 205.5 153.482 233.5 151.482 240.5C149.482 247.5 140.982 248 132.982 249.5C124.982 251 121.482 262 121.482 265C121.482 268 121.982 306.5 119.982 317C117.982 327.5 115.982 345.5 123.482 354.5C130.982 363.5 138.482 357 143.482 350.5C148.482 344 141.482 313.5 140.982 304C140.482 294.5 141.982 290 146.482 289.5C150.982 289 163.482 288 161.982 297C160.482 306 163.482 318 163.482 330C163.482 342 164.518 362 159 370.5C155.556 375.805 152.5 377.5 142 378C131.512 378.499 125.982 377.5 123.482 379.5C120.982 381.5 121.982 402 121.982 415.5C121.982 426.3 122.982 449.667 123.482 460Z" fill="#71717A"/>
<path d="M276.559 421.5C269.359 468.7 232.225 472.167 214.559 468C201.725 464.167 174.659 449.1 169.059 419.5C162.059 382.5 191.559 368.5 205.059 366C218.559 363.5 285.559 362.5 276.559 421.5Z" fill="#4A4A56"/>
<path d="M168.559 371L204.559 373.5H246.559L283.559 362.5H243.559L274.559 341.5L238.559 353.5L246.559 328L229.559 349L224.059 318L220.059 350.5L197.059 331L210.059 352L170.059 350.5L207.059 358L168.559 371Z" fill="#4A4A56"/>
<path d="M181.596 419.393C193.373 447.408 174.367 461.63 163.393 465.239C155.152 467.423 135.452 468.239 122.576 454.032C106.48 436.273 117.841 418.87 124.339 413.026C130.837 407.183 166.875 384.375 181.596 419.393Z" fill="#4A4A56"/>
<path d="M106.187 427.87L126.56 417.264L149.359 403.307L165.789 385.039L144.075 398.332L153.925 376.631L138.37 395.108L134.239 378.607L131.989 395.656L118.701 380.656L127.33 399.628L108.365 396.686L122.401 403.765L100.188 416.244L122.766 408.019L106.187 427.87Z" fill="#4A4A56"/>
<path d="M615 465.5H590.5L569 382L595 430L584.5 337.5L604 430L616.5 298.5V395.5L645 315.5L624.5 405L673.5 341L623 434L678 391.5L615 465.5Z" fill="#4A4A56"/>
<path d="M557.875 461.746L537.988 463.868L514.911 412.526L535.336 439.009L532.312 410.67L545.352 433.917L547.685 380.368L558.604 421.441L579.504 376.973L571.491 429.117L599.445 413.061L557.875 461.746Z" fill="#4A4A56"/>
<path d="M0 481.825V445.825H52C65.5 445.825 103.5 449.325 114 449.325C124.5 449.325 182 444.325 191.5 443.325C201 442.325 304.5 445.825 324 445.825C343.5 445.825 429.5 449.325 436.5 449.325C443.5 449.325 530 445.825 545 445.825C560 445.825 600.5 445.825 617 449.325C633.5 452.825 638 445.825 651.5 442.825C662.3 440.425 680.667 443.825 688.5 445.825V481.825H0Z" fill="#52525B"/>
</svg>
