<svg width="689" height="472" viewBox="0 0 689 472" fill="none" xmlns="http://www.w3.org/2000/svg">
<path d="M678 283.5C678 347.277 656.94 406.135 621.396 453.5H394.5H167.604C132.06 406.135 111 347.277 111 283.5C111 126.927 237.927 0 394.5 0C551.073 0 678 126.927 678 283.5Z" fill="#F9FAFB"/>
<path d="M639 283.5C639 350.314 612.2 410.868 568.764 455H394.5H220.236C176.8 410.868 150 350.314 150 283.5C150 148.466 259.466 39 394.5 39C529.534 39 639 148.466 639 283.5Z" fill="#F3F4F6"/>
<path d="M438.5 448.5H402.5C402.167 446.167 401.7 440.3 402.5 435.5C403.5 429.5 403 403 402 393.5C401 384 393 381.5 387.5 379C382 376.5 369 376.5 361.5 373C354 369.5 351 345 351 338.5C351 332 346.5 287.5 351 273.5C355.5 259.5 362 260.5 369 262C376 263.5 385 272 379.5 291.5C374 311 378.5 336 380.5 340C382.5 344 389.5 354.5 397.5 345C405.5 335.5 402 296 401 289.5C400 283 398.5 221 401 207.5C403.5 194 415 191 419.5 190.5C424 190 431.5 196 433.5 202.5C435.5 209 438 228 434.5 239.5C431 251 427.5 296 429 299C430.5 302 445.5 306 448 295C450.5 284 443 255 445.5 242.5C448 230 457 231 458 231C459 231 468.5 235.5 472.5 247C476.5 258.5 468.5 314 468.5 319.5C468.5 325 458.5 333 452 329.5C445.5 326 438.5 330 434 336C429.5 342 432.5 373 434 399.5C435.2 420.7 437.5 441 438.5 448.5Z" fill="#E5E7EB"/>
<path d="M123.482 450H96.9822C95.9822 442.5 94.0822 424.8 94.4822 414C94.9822 400.5 96.9822 380.5 97.4822 374.5C97.9823 368.5 97.4822 337 93.4822 333C89.4822 329 81.9822 332.5 77.4822 332C72.9822 331.5 68.4822 322.5 64.4822 316.5C60.4822 310.5 59.9822 275 59.4822 271.5C58.9822 268 56.9822 234.5 67.4822 231C77.9822 227.5 79.9822 229 82.4822 230.5C84.9822 232 83.9822 246.5 82.4822 253C80.9822 259.5 78.4822 294 79.9822 298.5C81.4822 303 93.9822 305.5 96.9822 298.5C99.9822 291.5 96.9822 275.5 96.9822 260.5C96.9822 250.192 94.4822 237 93.9822 226.5C93.4822 216 82.9822 178.5 84.9822 161.5C86.9822 144.5 97.4822 137.5 105.482 138C113.482 138.5 117.482 147.5 118.482 155.5C119.482 163.5 114.982 186.5 113.482 195C111.982 203.5 114.982 214.5 119.982 218C124.982 221.5 130.482 218.5 132.982 212.5C135.482 206.5 132.482 178 132.982 174C133.482 170 132.982 165 139.982 163.5C146.982 162 150.482 164.5 150.482 167C150.482 169.5 150.482 183.5 151.482 189.5C152.482 195.5 153.482 223.5 151.482 230.5C149.482 237.5 140.982 238 132.982 239.5C124.982 241 121.482 252 121.482 255C121.482 258 121.982 296.5 119.982 307C117.982 317.5 115.982 335.5 123.482 344.5C130.982 353.5 138.482 347 143.482 340.5C148.482 334 141.482 303.5 140.982 294C140.482 284.5 141.982 280 146.482 279.5C150.982 279 163.482 278 161.982 287C160.482 296 163.482 308 163.482 320C163.482 332 164.518 352 159 360.5C155.556 365.805 152.5 367.5 142 368C131.512 368.499 125.982 367.5 123.482 369.5C120.982 371.5 121.982 392 121.982 405.5C121.982 416.3 122.982 439.667 123.482 450Z" fill="#E5E7EB"/>
<path d="M276.559 411.5C269.359 458.7 232.225 462.167 214.559 458C201.725 454.167 174.659 439.1 169.059 409.5C162.059 372.5 191.559 358.5 205.059 356C218.559 353.5 285.559 352.5 276.559 411.5Z" fill="#CACED2"/>
<path d="M168.559 361L204.559 363.5H246.559L283.559 352.5H243.559L274.559 331.5L238.559 343.5L246.559 318L229.559 339L224.059 308L220.059 340.5L197.059 321L210.059 342L170.059 340.5L207.059 348L168.559 361Z" fill="#CACED2"/>
<path d="M181.596 409.393C193.373 437.408 174.367 451.63 163.393 455.239C155.152 457.423 135.452 458.239 122.576 444.032C106.48 426.273 117.841 408.87 124.339 403.026C130.837 397.183 166.875 374.375 181.596 409.393Z" fill="#CACED2"/>
<path d="M106.187 417.87L126.56 407.264L149.359 393.307L165.789 375.039L144.075 388.332L153.925 366.631L138.37 385.108L134.239 368.607L131.989 385.656L118.701 370.656L127.33 389.628L108.365 386.686L122.401 393.765L100.188 406.244L122.766 398.019L106.187 417.87Z" fill="#CACED2"/>
<path d="M615 455.5H590.5L569 372L595 420L584.5 327.5L604 420L616.5 288.5V385.5L645 305.5L624.5 395L673.5 331L623 424L678 381.5L615 455.5Z" fill="#CACED2"/>
<path d="M557.875 451.746L537.988 453.868L514.911 402.526L535.336 429.009L532.312 400.67L545.352 423.917L547.684 370.368L558.603 411.441L579.504 366.973L571.49 419.117L599.445 403.061L557.875 451.746Z" fill="#CACED2"/>
<path d="M0 471.825V435.825H52C65.5 435.825 103.5 439.325 114 439.325C124.5 439.325 182 434.325 191.5 433.325C201 432.325 304.5 435.825 324 435.825C343.5 435.825 429.5 439.325 436.5 439.325C443.5 439.325 530 435.825 545 435.825C560 435.825 600.5 435.825 617 439.325C633.5 442.825 638 435.825 651.5 432.825C662.3 430.425 680.667 433.825 688.5 435.825V471.825H0Z" fill="#D1D5DB"/>
</svg>
