<svg width="689" height="472" viewBox="0 0 689 472" fill="none" xmlns="http://www.w3.org/2000/svg">
<path d="M678 283.5C678 347.277 656.94 406.135 621.396 453.5H394.5H167.604C132.06 406.135 111 347.277 111 283.5C111 126.927 237.927 0 394.5 0C551.073 0 678 126.927 678 283.5Z" fill="#F9FAFB"/>
<path d="M639 283.5C639 350.314 612.2 410.868 568.764 455H394.5H220.236C176.8 410.868 150 350.314 150 283.5C150 148.466 259.466 39 394.5 39C529.534 39 639 148.466 639 283.5Z" fill="#F3F4F6"/>
<rect x="356" y="236.952" width="21.3734" height="221" transform="rotate(-7.9385 356 236.952)" fill="#D9D9D9"/>
<path d="M487.263 237.054L244.956 271.603L241.296 272.125L238.187 266.037C241.337 263.682 247.299 258.695 245.945 257.582C244.253 256.19 241.096 255.008 241.6 253.303C242.003 251.939 243.492 250.856 244.186 250.485L238.833 249.615L232.739 212.109L249.395 203.202C243.234 201.903 230.867 198.985 230.685 197.705C230.228 194.504 230.501 178.951 230.694 171.576C312.119 159.421 475.352 135.711 476.889 138.105C478.809 141.097 478.705 177.037 480.512 179.229C482.318 181.421 489.249 182.882 487.899 183.891C486.819 184.698 483.437 187.521 481.881 188.832L486.844 192.207L461.403 202.366L487.433 206.819L481.805 209.255C482.293 209.185 483.923 209.443 486.54 211.029C489.156 212.616 488.112 229.04 487.263 237.054Z" fill="#CECECE"/>
<path d="M321.751 208.465C321.132 208.552 320.765 208.296 320.65 207.696L319.835 199.835C319.792 199.526 319.954 199.329 320.321 199.247L323.22 198.652C323.545 198.607 323.732 198.762 323.782 199.118L324.152 201.598C326.079 201.723 328.071 201.642 330.129 201.355C332.203 201.065 333.706 200.31 334.64 199.091C335.588 197.854 335.909 196.145 335.604 193.963C335.331 192.013 334.642 190.579 333.535 189.661C332.482 188.783 331.297 188.436 329.982 188.619C328.001 188.896 326.445 189.216 325.312 189.58C323.684 190.123 322.762 190.41 322.545 190.44C322.251 190.481 321.963 190.34 321.681 190.016L319.091 187.231L319.329 172.17C319.339 171.68 319.523 171.409 319.878 171.36L331.688 170.348L331.542 169.304C331.492 168.948 331.634 168.723 331.968 168.629L334.894 167.888C335.188 167.847 335.375 168.003 335.456 168.354L336.917 176.433C336.936 176.683 336.777 176.847 336.441 176.925L333.194 177.734C332.544 177.825 332.177 177.569 332.092 176.965L332.016 174.728L323.892 175.863L323.964 186.029C326.321 184.942 328.311 184.286 329.936 184.058C331.576 183.829 333.003 183.874 334.215 184.194C335.443 184.512 336.498 185.066 337.382 185.858C339.134 187.443 340.239 189.876 340.698 193.156C341.204 196.778 340.604 199.654 338.898 201.786C337.339 203.723 334.934 204.919 331.685 205.373C329.58 205.667 328.065 205.777 327.139 205.701C326.229 205.623 325.524 205.548 325.025 205.476L325.474 207.164C325.509 207.412 325.35 207.576 324.999 207.657L321.751 208.465ZM347.5 194.075C346.807 192.058 346.307 189.943 345.997 187.73C345.686 185.502 345.462 183.561 345.326 181.908C345.189 180.254 345.152 178.69 345.214 177.214C345.289 175.72 345.491 174.343 345.82 173.082C346.146 171.806 346.659 170.677 347.358 169.696C348.805 167.632 351.161 166.372 354.426 165.916C360.987 164.999 365.065 170.243 366.659 181.647C367.574 188.193 367.442 193.063 366.263 196.257C364.996 199.716 362.304 201.733 358.187 202.308C353.22 203.002 349.657 200.258 347.5 194.075ZM358.163 197.058C359.324 196.895 360.197 196.426 360.783 195.65C361.382 194.857 361.77 193.793 361.946 192.459C362.233 190.336 362.022 186.737 361.313 181.661C360.748 177.622 359.988 174.833 359.031 173.295C358.028 171.652 356.521 170.971 354.51 171.253C353.395 171.408 352.513 171.753 351.861 172.285C351.208 172.803 350.763 173.63 350.528 174.767C350.095 176.752 350.279 180.608 351.08 186.333C351.625 190.233 352.355 192.979 353.272 194.57C354.398 196.527 356.028 197.356 358.163 197.058ZM375.215 190.202C374.522 188.184 374.022 186.069 373.712 183.856C373.401 181.628 373.177 179.687 373.041 178.034C372.904 176.381 372.867 174.816 372.929 173.34C373.004 171.847 373.206 170.47 373.535 169.209C373.861 167.933 374.374 166.804 375.073 165.823C376.52 163.759 378.876 162.499 382.141 162.042C388.702 161.125 392.78 166.369 394.374 177.774C395.289 184.32 395.157 189.189 393.978 192.383C392.711 195.842 390.019 197.859 385.902 198.435C380.935 199.129 377.372 196.385 375.215 190.202ZM385.878 193.184C387.039 193.022 387.912 192.553 388.498 191.777C389.097 190.983 389.485 189.919 389.661 188.585C389.948 186.462 389.737 182.863 389.028 177.788C388.463 173.749 387.703 170.96 386.746 169.421C385.743 167.779 384.236 167.098 382.225 167.379C381.11 167.535 380.228 167.879 379.576 168.412C378.923 168.929 378.478 169.756 378.243 170.894C377.81 172.879 377.994 176.734 378.795 182.46C379.34 186.359 380.07 189.105 380.987 190.697C382.112 192.653 383.743 193.483 385.878 193.184ZM276.777 253.097C275.951 253.507 274.878 253.804 273.557 253.989C272.237 254.173 270.646 254.227 268.784 254.151L269.065 255.374C269.091 255.559 268.986 255.669 268.748 255.702L266.098 256.151C265.703 256.186 265.458 256.015 265.363 255.639L263.938 249.732C263.909 249.526 264.017 249.395 264.262 249.34L267.256 248.637C267.452 248.61 267.577 248.714 267.631 248.948L268.182 251.427C269.69 251.374 271.181 251.244 272.656 251.038C274.131 250.832 275.128 250.44 275.647 249.863C276.164 249.275 276.353 248.476 276.211 247.465C276.084 246.557 275.635 245.862 274.863 245.381C274.459 245.122 273.947 244.884 273.327 244.665L268.799 243.2C267.204 242.697 266.098 242.273 265.482 241.928C264.865 241.572 264.377 241.209 264.02 240.838C263.305 240.086 262.869 239.148 262.712 238.024C262.553 236.889 262.594 235.9 262.834 235.056C263.072 234.203 263.471 233.442 264.029 232.775C265.199 231.36 266.815 230.508 268.879 230.22C270.344 230.015 271.965 230.025 273.742 230.25C275.006 229.663 275.804 229.347 276.134 229.301C276.474 229.253 276.674 229.367 276.734 229.643L277.322 236.108C277.334 236.348 277.268 236.478 277.124 236.498L274.511 236.769C274.365 236.779 274.273 236.755 274.233 236.697C274.193 236.64 274.159 236.545 274.13 236.412L273.53 233.025C272.262 232.908 271.221 232.906 270.406 233.02C268.353 233.307 267.035 234.075 266.452 235.324C266.242 235.774 266.176 236.283 266.255 236.85C266.333 237.407 266.532 237.853 266.852 238.186C267.173 238.52 267.608 238.817 268.16 239.077C268.71 239.326 269.375 239.564 270.153 239.792L272.853 240.598C275.391 241.369 277.117 242.132 278.033 242.887C279.03 243.705 279.648 244.96 279.884 246.652C280.309 249.695 279.274 251.843 276.777 253.097ZM294.862 250.98C293.587 251.494 291.934 251.894 289.902 252.178C287.828 252.467 286.232 252.038 285.115 250.89C283.949 249.696 283.164 247.655 282.76 244.767C282.336 241.734 282.438 239.411 283.064 237.798C283.783 236.015 285.158 234.797 287.192 234.145C287.897 233.92 288.693 233.746 289.58 233.622C291.489 233.355 292.942 233.63 293.939 234.448C294.937 235.266 295.571 236.639 295.841 238.568C296.017 239.827 295.93 240.828 295.582 241.571C295.468 241.807 295.306 242.082 295.098 242.395C294.887 242.698 294.462 243.005 293.822 243.315C293.191 243.614 292.455 243.88 291.614 244.113C290.307 244.464 288.487 244.802 286.155 245.128C286.533 246.853 287.127 247.98 287.937 248.508C288.553 248.927 289.537 249.042 290.888 248.853C292.157 248.675 293.406 248.39 294.634 247.998L294.568 247.187C294.561 247.062 294.575 246.975 294.611 246.928C294.657 246.88 294.739 246.831 294.859 246.783L297.018 245.977C297.245 245.945 297.388 246.025 297.446 246.217C297.501 246.388 297.581 246.729 297.684 247.24C297.785 247.742 297.878 248.176 297.96 248.543C298.043 248.91 298.119 249.262 298.187 249.6L298.37 250.458C298.416 250.714 298.452 250.93 298.476 251.105C298.52 251.415 298.318 251.627 297.871 251.742L295.346 252.411C295.119 252.442 294.989 252.345 294.958 252.118L294.862 250.98ZM292.006 241.045C292.241 240.77 292.363 240.474 292.371 240.158C292.388 239.829 292.367 239.453 292.308 239.03C292.248 238.597 292.153 238.221 292.024 237.903C291.906 237.583 291.737 237.317 291.518 237.106C291.047 236.667 290.357 236.511 289.449 236.637C287.696 236.883 286.587 237.49 286.123 238.459C285.681 239.362 285.57 240.829 285.791 242.86C289.384 242.305 291.456 241.7 292.006 241.045ZM302.406 250.209C302.241 250.232 302.141 250.12 302.106 249.872L301.732 247.195C301.702 246.979 301.8 246.854 302.027 246.823L303.838 246.57L302.373 236.093L300.187 236.588C300.02 236.601 299.9 236.492 299.825 236.26L299.024 233.012C299.028 232.811 299.136 232.686 299.35 232.635L304.055 231.646C304.241 231.62 304.35 231.726 304.384 231.963L304.508 234.549C305.494 233.096 307.087 232 309.287 231.262C309.949 231.032 310.595 230.874 311.224 230.786C311.853 230.698 312.201 230.818 312.268 231.145L313.245 236.783C313.271 236.968 313.208 237.082 313.056 237.125L310.178 237.748C310.054 237.765 309.953 237.758 309.875 237.727C309.797 237.696 309.746 237.593 309.721 237.417L309.338 234.678C308.013 234.979 306.869 235.412 305.907 235.978L307.164 246.215L309.829 245.638C309.994 245.615 310.094 245.69 310.129 245.864L310.656 248.393C310.654 248.604 310.556 248.733 310.363 248.781L302.406 250.209ZM314.129 231.027C314.1 230.82 314.204 230.701 314.442 230.667L321.467 229.686C321.612 229.665 321.698 229.685 321.728 229.744C321.756 229.793 321.777 229.874 321.793 229.987L321.907 232.495C321.905 232.632 321.887 232.724 321.851 232.772C321.816 232.819 321.736 232.851 321.612 232.868L319.994 233.142L325.488 243.67L327.343 231.878L325.483 232.343C325.318 232.366 325.218 232.29 325.183 232.117L324.656 229.587C324.658 229.376 324.756 229.247 324.949 229.199L331.513 227.966C331.68 227.953 331.78 228.065 331.813 228.303L332.209 231.135C332.198 231.357 332.099 231.481 331.914 231.507L330.382 231.721L327.52 246.241C327.486 246.446 327.362 246.574 327.148 246.625L324.395 247.136C324.196 247.143 324.035 247.039 323.91 246.825L316.291 233.738L314.871 233.968C314.655 233.998 314.529 233.89 314.495 233.642L314.129 231.027ZM347.723 243.591C346.448 244.106 344.795 244.505 342.763 244.79C340.689 245.079 339.094 244.65 337.976 243.502C336.81 242.308 336.025 240.267 335.621 237.379C335.197 234.346 335.299 232.023 335.925 230.41C336.644 228.627 338.02 227.409 340.053 226.757C340.758 226.532 341.554 226.358 342.441 226.234C344.35 225.967 345.803 226.242 346.801 227.06C347.798 227.878 348.432 229.251 348.702 231.18C348.878 232.439 348.791 233.44 348.443 234.182C348.329 234.419 348.167 234.694 347.959 235.007C347.749 235.31 347.323 235.617 346.683 235.927C346.052 236.226 345.316 236.492 344.475 236.725C343.168 237.076 341.348 237.414 339.017 237.74C339.394 239.465 339.988 240.591 340.798 241.12C341.414 241.539 342.398 241.654 343.75 241.465C345.018 241.287 346.267 241.002 347.495 240.61L347.429 239.799C347.422 239.673 347.437 239.587 347.472 239.54C347.518 239.492 347.601 239.443 347.72 239.395L349.879 238.589C350.106 238.557 350.249 238.637 350.307 238.828C350.363 239 350.442 239.341 350.545 239.852C350.647 240.353 350.739 240.788 350.822 241.155C350.904 241.522 350.98 241.874 351.048 242.212L351.231 243.07C351.278 243.326 351.313 243.542 351.338 243.717C351.381 244.027 351.179 244.239 350.732 244.354L348.207 245.023C347.98 245.054 347.851 244.957 347.819 244.73L347.723 243.591ZM344.867 233.657C345.102 233.382 345.224 233.086 345.232 232.77C345.249 232.441 345.228 232.065 345.169 231.642C345.109 231.209 345.014 230.833 344.885 230.515C344.767 230.195 344.598 229.929 344.38 229.718C343.908 229.279 343.218 229.123 342.311 229.249C340.557 229.495 339.448 230.102 338.984 231.071C338.542 231.974 338.432 233.441 338.652 235.472C342.245 234.917 344.317 234.312 344.867 233.657ZM355.267 242.821C355.102 242.844 355.002 242.732 354.967 242.484L354.593 239.807C354.563 239.59 354.661 239.466 354.888 239.435L356.699 239.182L355.235 228.705L353.048 229.2C352.881 229.213 352.761 229.104 352.686 228.872L351.885 225.624C351.889 225.423 351.997 225.298 352.211 225.247L356.916 224.258C357.102 224.232 357.212 224.337 357.245 224.575L357.369 227.16C358.355 225.708 359.948 224.612 362.148 223.874C362.81 223.644 363.456 223.486 364.085 223.398C364.714 223.31 365.063 223.43 365.129 223.757L366.107 229.395C366.133 229.58 366.07 229.694 365.918 229.736L363.039 230.36C362.915 230.377 362.814 230.37 362.736 230.339C362.658 230.308 362.607 230.204 362.582 230.029L362.2 227.29C360.874 227.591 359.731 228.024 358.768 228.59L360.026 238.827L362.69 238.25C362.855 238.226 362.955 238.302 362.99 238.476L363.517 241.005C363.515 241.216 363.417 241.345 363.224 241.393L355.267 242.821ZM397.885 237.322C397.877 237.565 397.785 237.699 397.61 237.723L394.692 238.068C394.465 238.1 394.333 237.982 394.295 237.713L394.132 236.774L380.367 239.092C380.13 239.125 379.989 239.019 379.944 238.773L379.639 235.912C379.617 235.757 379.686 235.648 379.845 235.584L381.817 235.576L379.338 218.742L377.412 219.185C377.226 219.21 377.117 219.11 377.085 218.883L376.862 216.043C376.855 215.844 376.964 215.718 377.188 215.666L392.565 212.917C392.877 212.895 393.051 213.012 393.088 213.27L393.567 218.962C393.601 219.199 393.535 219.329 393.37 219.352L390.757 219.623C390.611 219.633 390.518 219.609 390.479 219.551C390.439 219.494 390.405 219.399 390.376 219.266L389.911 216.617L382.645 218.027L383.762 225.223L391.293 223.681C391.55 223.645 391.706 223.745 391.76 223.979L392.232 226.564C392.244 226.804 392.153 226.937 391.957 226.965L384.203 228.159L385.3 235.216L393.618 233.769L393.272 231.751C393.24 231.366 393.428 231.135 393.838 231.056L396.356 230.783C396.596 230.771 396.727 230.847 396.75 231.012L397.885 237.322ZM401.381 236.376C401.216 236.399 401.116 236.287 401.082 236.039L400.708 233.362C400.677 233.145 400.776 233.021 401.003 232.989L402.813 232.736L401.349 222.26L399.162 222.755C398.995 222.768 398.875 222.658 398.801 222.427L397.999 219.178C398.003 218.978 398.112 218.853 398.325 218.802L403.031 217.813C403.216 217.787 403.326 217.892 403.359 218.13L403.484 220.715C404.469 219.263 406.062 218.167 408.262 217.429C408.924 217.199 409.57 217.041 410.199 216.953C410.829 216.865 411.177 216.984 411.244 217.312L412.221 222.949C412.247 223.135 412.184 223.249 412.032 223.291L409.153 223.915C409.029 223.932 408.928 223.925 408.85 223.894C408.772 223.863 408.721 223.759 408.697 223.584L408.314 220.845C406.989 221.146 405.845 221.579 404.883 222.145L406.14 232.382L408.804 231.804C408.969 231.781 409.069 231.857 409.104 232.031L409.631 234.56C409.629 234.771 409.531 234.9 409.338 234.948L401.381 236.376ZM417.227 234.161C417.062 234.184 416.962 234.072 416.928 233.824L416.554 231.147C416.523 230.931 416.622 230.807 416.849 230.775L418.659 230.522L417.195 220.045L415.008 220.54C414.841 220.553 414.721 220.444 414.647 220.212L413.845 216.964C413.849 216.763 413.958 216.638 414.171 216.587L418.877 215.598C419.062 215.572 419.172 215.678 419.205 215.915L419.33 218.501C420.315 217.048 421.908 215.953 424.108 215.214C424.77 214.985 425.416 214.826 426.045 214.738C426.675 214.65 427.023 214.77 427.09 215.097L428.067 220.735C428.093 220.92 428.03 221.034 427.878 221.077L424.999 221.7C424.875 221.717 424.774 221.71 424.696 221.679C424.618 221.648 424.567 221.545 424.543 221.369L424.16 218.63C422.835 218.931 421.691 219.364 420.729 219.93L421.986 230.167L424.65 229.59C424.815 229.567 424.915 229.642 424.95 229.816L425.477 232.346C425.475 232.556 425.377 232.686 425.184 232.734L417.227 234.161ZM431.631 223.092C431.384 221.328 431.324 219.843 431.45 218.637C431.584 217.419 431.892 216.419 432.371 215.637C433.267 214.218 434.927 213.339 437.351 213C439.043 212.764 440.3 212.762 441.121 212.994C441.953 213.225 442.621 213.526 443.125 213.897C443.639 214.267 444.104 214.77 444.519 215.406C445.353 216.709 445.918 218.419 446.214 220.533C446.508 222.638 446.585 224.284 446.446 225.471C446.317 226.656 446.007 227.636 445.516 228.409C444.598 229.82 442.917 230.697 440.472 231.039C437.913 231.396 435.965 231.038 434.626 229.962C433.099 228.745 432.101 226.455 431.631 223.092ZM442.841 226.432C443.093 225.976 443.245 225.366 443.296 224.601C443.346 223.837 443.297 222.918 443.147 221.846C442.997 220.773 442.819 219.914 442.613 219.27C442.408 218.625 442.171 218.101 441.904 217.696C441.646 217.28 441.361 216.968 441.048 216.759C440.733 216.54 440.402 216.392 440.055 216.314C439.534 216.198 438.865 216.196 438.05 216.31C437.235 216.424 436.594 216.577 436.127 216.768C435.659 216.96 435.294 217.279 435.03 217.726C434.531 218.595 434.447 220.216 434.779 222.589C435.25 225.963 436.424 227.739 438.3 227.919C438.876 227.975 439.489 227.958 440.139 227.867C440.789 227.776 441.337 227.631 441.782 227.432C442.236 227.221 442.59 226.888 442.841 226.432ZM451.55 229.364C451.385 229.387 451.285 229.275 451.25 229.027L450.876 226.35C450.846 226.134 450.944 226.009 451.171 225.978L452.982 225.725L451.518 215.248L449.331 215.743C449.164 215.756 449.044 215.647 448.969 215.415L448.168 212.167C448.172 211.966 448.28 211.841 448.494 211.79L453.199 210.801C453.385 210.775 453.494 210.881 453.528 211.118L453.652 213.704C454.638 212.251 456.231 211.156 458.431 210.417C459.093 210.188 459.739 210.029 460.368 209.941C460.997 209.853 461.345 209.973 461.412 210.3L462.389 215.938C462.415 216.123 462.352 216.237 462.201 216.28L459.322 216.903C459.198 216.92 459.097 216.913 459.019 216.882C458.941 216.851 458.89 216.748 458.865 216.572L458.482 213.833C457.157 214.134 456.013 214.567 455.051 215.133L456.308 225.37L458.973 224.793C459.138 224.77 459.238 224.845 459.273 225.019L459.8 227.548C459.798 227.759 459.7 227.888 459.507 227.937L451.55 229.364Z" fill="white"/>
<path d="M548.5 448.5H512.5C512.167 446.167 511.7 440.3 512.5 435.5C513.5 429.5 513 403 512 393.5C511 384 503 381.5 497.5 379C492 376.5 479 376.5 471.5 373C464 369.5 461 345 461 338.5C461 332 456.5 287.5 461 273.5C465.5 259.5 472 260.5 479 262C486 263.5 495 272 489.5 291.5C484 311 488.5 336 490.5 340C492.5 344 499.5 354.5 507.5 345C515.5 335.5 512 296 511 289.5C510 283 508.5 221 511 207.5C513.5 194 525 191 529.5 190.5C534 190 541.5 196 543.5 202.5C545.5 209 548 228 544.5 239.5C541 251 537.5 296 539 299C540.5 302 555.5 306 558 295C560.5 284 553 255 555.5 242.5C558 230 567 231 568 231C569 231 578.5 235.5 582.5 247C586.5 258.5 578.5 314 578.5 319.5C578.5 325 568.5 333 562 329.5C555.5 326 548.5 330 544 336C539.5 342 542.5 373 544 399.5C545.2 420.7 547.5 441 548.5 448.5Z" fill="#E5E7EB"/>
<path d="M123.482 450H96.9822C95.9822 442.5 94.0822 424.8 94.4822 414C94.9822 400.5 96.9822 380.5 97.4822 374.5C97.9823 368.5 97.4822 337 93.4822 333C89.4822 329 81.9822 332.5 77.4822 332C72.9822 331.5 68.4822 322.5 64.4822 316.5C60.4822 310.5 59.9822 275 59.4822 271.5C58.9822 268 56.9822 234.5 67.4822 231C77.9822 227.5 79.9822 229 82.4822 230.5C84.9822 232 83.9822 246.5 82.4822 253C80.9822 259.5 78.4822 294 79.9822 298.5C81.4822 303 93.9822 305.5 96.9822 298.5C99.9822 291.5 96.9822 275.5 96.9822 260.5C96.9822 250.192 94.4822 237 93.9822 226.5C93.4822 216 82.9822 178.5 84.9822 161.5C86.9822 144.5 97.4822 137.5 105.482 138C113.482 138.5 117.482 147.5 118.482 155.5C119.482 163.5 114.982 186.5 113.482 195C111.982 203.5 114.982 214.5 119.982 218C124.982 221.5 130.482 218.5 132.982 212.5C135.482 206.5 132.482 178 132.982 174C133.482 170 132.982 165 139.982 163.5C146.982 162 150.482 164.5 150.482 167C150.482 169.5 150.482 183.5 151.482 189.5C152.482 195.5 153.482 223.5 151.482 230.5C149.482 237.5 140.982 238 132.982 239.5C124.982 241 121.482 252 121.482 255C121.482 258 121.982 296.5 119.982 307C117.982 317.5 115.982 335.5 123.482 344.5C130.982 353.5 138.482 347 143.482 340.5C148.482 334 141.482 303.5 140.982 294C140.482 284.5 141.982 280 146.482 279.5C150.982 279 163.482 278 161.982 287C160.482 296 163.482 308 163.482 320C163.482 332 164.518 352 159 360.5C155.556 365.805 152.5 367.5 142 368C131.512 368.499 125.982 367.5 123.482 369.5C120.982 371.5 121.982 392 121.982 405.5C121.982 416.3 122.982 439.667 123.482 450Z" fill="#E5E7EB"/>
<path d="M276.559 411.5C269.359 458.7 232.225 462.167 214.559 458C201.725 454.167 174.659 439.1 169.059 409.5C162.059 372.5 191.559 358.5 205.059 356C218.559 353.5 285.559 352.5 276.559 411.5Z" fill="#CACED2"/>
<path d="M168.559 361L204.559 363.5H246.559L283.559 352.5H243.559L274.559 331.5L238.559 343.5L246.559 318L229.559 339L224.059 308L220.059 340.5L197.059 321L210.059 342L170.059 340.5L207.059 348L168.559 361Z" fill="#CACED2"/>
<path d="M181.596 409.393C193.373 437.408 174.367 451.63 163.393 455.239C155.152 457.423 135.452 458.239 122.576 444.032C106.48 426.273 117.841 408.87 124.339 403.026C130.837 397.183 166.875 374.375 181.596 409.393Z" fill="#CACED2"/>
<path d="M106.187 417.87L126.56 407.264L149.359 393.307L165.789 375.039L144.075 388.332L153.925 366.631L138.37 385.108L134.239 368.607L131.989 385.656L118.701 370.656L127.33 389.628L108.365 386.686L122.401 393.765L100.188 406.244L122.766 398.019L106.187 417.87Z" fill="#CACED2"/>
<path d="M615 455.5H590.5L569 372L595 420L584.5 327.5L604 420L616.5 288.5V385.5L645 305.5L624.5 395L673.5 331L623 424L678 381.5L615 455.5Z" fill="#CACED2"/>
<path d="M557.875 451.746L537.988 453.868L514.911 402.526L535.336 429.009L532.312 400.67L545.352 423.917L547.685 370.368L558.604 411.441L579.504 366.973L571.491 419.117L599.445 403.061L557.875 451.746Z" fill="#CACED2"/>
<path d="M0 471.825V435.825H52C65.5 435.825 103.5 439.325 114 439.325C124.5 439.325 182 434.325 191.5 433.325C201 432.325 304.5 435.825 324 435.825C343.5 435.825 429.5 439.325 436.5 439.325C443.5 439.325 530 435.825 545 435.825C560 435.825 600.5 435.825 617 439.325C633.5 442.825 638 435.825 651.5 432.825C662.3 430.425 680.667 433.825 688.5 435.825V471.825H0Z" fill="#D1D5DB"/>
</svg>
