<svg width="689" height="482" viewBox="0 0 689 482" fill="none" xmlns="http://www.w3.org/2000/svg">
<circle cx="523.5" cy="154.5" r="154.5" fill="#D9D9D9"/>
<path fill-rule="evenodd" clip-rule="evenodd" d="M434.742 118.002C448.283 118.128 460.362 126.281 464.783 138.956C469.476 152.41 466.932 168.284 455.103 176.371C443.925 184.013 429.679 178.405 418.734 170.438C408.033 162.649 399.063 150.967 402.906 138.378C406.948 125.137 420.773 117.871 434.742 118.002Z" fill="#C4C4C4"/>
<mask id="mask0_3_117" style="mask-type:alpha" maskUnits="userSpaceOnUse" x="402" y="118" width="65" height="62">
<path fill-rule="evenodd" clip-rule="evenodd" d="M434.742 118.002C448.283 118.128 460.362 126.281 464.783 138.956C469.476 152.41 466.932 168.284 455.103 176.371C443.925 184.013 429.679 178.405 418.734 170.438C408.033 162.649 399.063 150.967 402.906 138.378C406.948 125.137 420.773 117.871 434.742 118.002Z" fill="#C4C4C4"/>
</mask>
<g mask="url(#mask0_3_117)">
<path d="M466.5 147.5C461.3 117.5 430.667 118 416 122L429 106L473.5 127.5L466.5 147.5Z" fill="#BFBDBD"/>
</g>
<path fill-rule="evenodd" clip-rule="evenodd" d="M447.768 54.0008C455.828 54.0619 463.975 57.787 466.397 65.5032C468.765 73.0497 463.822 80.297 457.505 85.0297C450.855 90.0119 442.181 93.4587 435.302 88.7992C427.808 83.7228 425.194 73.7534 428.253 65.2143C431.057 57.3874 439.481 53.9381 447.768 54.0008Z" fill="#C4C4C4"/>
<mask id="mask1_3_117" style="mask-type:alpha" maskUnits="userSpaceOnUse" x="427" y="54" width="40" height="37">
<path fill-rule="evenodd" clip-rule="evenodd" d="M447.768 54.0008C455.828 54.0619 463.975 57.787 466.397 65.5032C468.765 73.0497 463.822 80.297 457.505 85.0297C450.855 90.0119 442.181 93.4587 435.302 88.7992C427.808 83.7228 425.194 73.7534 428.253 65.2143C431.057 57.3874 439.481 53.9381 447.768 54.0008Z" fill="#C4C4C4"/>
</mask>
<g mask="url(#mask1_3_117)">
<path d="M449.5 45.5L437.5 56C451 54 465.351 57 466.5 72L475 64L449.5 45.5Z" fill="#BFBDBD"/>
</g>
<path fill-rule="evenodd" clip-rule="evenodd" d="M492.787 79.0004C487.671 79.0488 484.147 83.5738 482.643 88.448C481.223 93.0487 482.078 98.2345 485.973 101.081C489.915 103.961 495.283 103.445 499.225 100.565C503.116 97.724 504.917 92.858 503.542 88.2503C502.048 83.2494 498.022 78.9509 492.787 79.0004Z" fill="#C4C4C4"/>
<mask id="mask2_3_117" style="mask-type:alpha" maskUnits="userSpaceOnUse" x="482" y="79" width="22" height="24">
<path fill-rule="evenodd" clip-rule="evenodd" d="M492.787 79.0004C487.671 79.0488 484.147 83.5738 482.643 88.448C481.223 93.0487 482.078 98.2345 485.973 101.081C489.915 103.961 495.283 103.445 499.225 100.565C503.116 97.724 504.917 92.858 503.542 88.2503C502.048 83.2494 498.022 78.9509 492.787 79.0004Z" fill="#C4C4C4"/>
</mask>
<g mask="url(#mask2_3_117)">
<path d="M491 74.5L485.5 83C496.3 77.8 502.333 86.8333 504 92L513 84L491 74.5Z" fill="#BFBDBD"/>
</g>
<path fill-rule="evenodd" clip-rule="evenodd" d="M578.504 251.977C585.25 251.701 590.89 247.133 593.024 240.623C595.212 233.947 593.759 226.45 588.281 222.149C582.279 217.437 573.998 216.412 567.747 220.776C560.976 225.504 557.167 234.097 559.884 241.977C562.45 249.422 570.75 252.293 578.504 251.977Z" fill="#C4C4C4"/>
<mask id="mask3_3_117" style="mask-type:alpha" maskUnits="userSpaceOnUse" x="559" y="218" width="35" height="34">
<path fill-rule="evenodd" clip-rule="evenodd" d="M578.504 251.977C585.25 251.701 590.89 247.133 593.024 240.623C595.212 233.947 593.759 226.45 588.281 222.149C582.279 217.437 573.998 216.412 567.747 220.776C560.976 225.504 557.167 234.097 559.884 241.977C562.45 249.422 570.75 252.293 578.504 251.977Z" fill="#C4C4C4"/>
</mask>
<g mask="url(#mask3_3_117)">
<path d="M576 209L565 222C583 214 592.167 227 594.5 234.5L605 228.5L576 209Z" fill="#BFBDBD"/>
</g>
<path fill-rule="evenodd" clip-rule="evenodd" d="M606.031 69.0058C612.748 68.8349 619.35 72.4642 621.407 78.9648C623.446 85.4113 620.002 92.062 614.561 95.9712C609.352 99.7138 602.386 100.168 597.253 96.3186C592.229 92.5505 590.917 85.7227 592.855 79.691C594.784 73.6901 599.821 69.1637 606.031 69.0058Z" fill="#C4C4C4"/>
<mask id="mask4_3_117" style="mask-type:alpha" maskUnits="userSpaceOnUse" x="592" y="69" width="30" height="30">
<path fill-rule="evenodd" clip-rule="evenodd" d="M606.031 69.0058C612.748 68.8349 619.35 72.4642 621.407 78.9648C623.446 85.4113 620.002 92.062 614.561 95.9712C609.352 99.7138 602.386 100.168 597.253 96.3186C592.229 92.5505 590.917 85.7227 592.855 79.691C594.784 73.6901 599.821 69.1637 606.031 69.0058Z" fill="#C4C4C4"/>
</mask>
<g mask="url(#mask4_3_117)">
<path d="M602.5 64.5L598 72C612.4 68 620 77 622 82L627 73.5L602.5 64.5Z" fill="#BFBDBD"/>
</g>
<rect x="334.22" y="245.509" width="21.3734" height="221" transform="rotate(-7.9385 334.22 245.509)" fill="#4E4E5A"/>
<path d="M465.483 245.611L223.177 280.16L219.516 280.682L216.407 274.594C219.557 272.239 225.519 267.252 224.165 266.139C222.473 264.747 219.316 263.564 219.82 261.86C220.223 260.496 221.712 259.413 222.406 259.041L217.054 258.172L210.959 220.666L227.615 211.759C221.454 210.46 209.088 207.542 208.905 206.262C208.449 203.061 208.721 187.508 208.914 180.132C290.339 167.978 453.572 144.268 455.109 146.661C457.029 149.654 456.925 185.594 458.732 187.786C460.538 189.978 467.469 191.439 466.119 192.448C465.039 193.255 461.657 196.078 460.101 197.389L465.064 200.764L439.623 210.923L465.654 215.376L460.025 217.812C460.513 217.742 462.144 218 464.76 219.586C467.376 221.173 466.332 237.597 465.483 245.611Z" fill="#44444F"/>
<path d="M319.685 201.275C319.697 201.589 319.533 201.769 319.193 201.817L314.649 202.499L315.535 208.836L318.795 208.452C319.15 208.402 319.358 208.531 319.417 208.838L320.092 212.317C320.133 212.611 320.03 212.775 319.782 212.81L306.25 214.701C305.956 214.742 305.78 214.617 305.724 214.325L304.969 210.62C304.918 210.249 305 210.048 305.217 210.018L310.366 209.44L309.642 203.246L298.096 204.955C297.477 205.041 297.044 204.881 296.798 204.474L295.422 202.252C295.317 202.062 295.254 201.897 295.235 201.758C295.215 201.618 295.291 201.198 295.461 200.495L298.346 190.153C300.503 182.894 301.638 179.106 301.751 178.791C301.865 178.475 301.964 178.28 302.048 178.205C302.13 178.115 302.28 178.054 302.496 178.024L307.649 178.487C307.888 178.501 308.027 178.592 308.066 178.76C308.105 178.928 307.998 179.401 307.743 180.178C307.505 180.953 307.17 181.946 306.74 183.158L301.727 196.733L300.07 200.964L309.193 199.357L308.295 191.578C308.246 191.222 308.414 191.017 308.801 190.963L313.48 190.238C313.798 190.257 313.977 190.406 314.016 190.684L314.184 198.494L318.618 197.709C318.866 197.674 319.01 197.804 319.051 198.098L319.685 201.275ZM325.72 202.632C325.028 200.615 324.527 198.5 324.218 196.287C323.906 194.059 323.682 192.118 323.546 190.465C323.409 188.811 323.372 187.247 323.434 185.771C323.509 184.277 323.711 182.9 324.04 181.639C324.366 180.363 324.879 179.234 325.578 178.253C327.025 176.189 329.381 174.929 332.646 174.473C339.208 173.556 343.285 178.8 344.879 190.204C345.794 196.75 345.662 201.62 344.484 204.814C343.216 208.273 340.524 210.29 336.408 210.865C331.44 211.559 327.878 208.815 325.72 202.632ZM336.384 205.615C337.544 205.452 338.417 204.983 339.003 204.207C339.602 203.414 339.99 202.35 340.166 201.016C340.453 198.893 340.242 195.294 339.533 190.218C338.968 186.179 338.208 183.39 337.251 181.852C336.249 180.209 334.741 179.528 332.73 179.809C331.616 179.965 330.733 180.309 330.082 180.842C329.428 181.36 328.984 182.187 328.748 183.324C328.316 185.309 328.5 189.165 329.3 194.89C329.845 198.79 330.576 201.536 331.492 203.127C332.618 205.084 334.248 205.913 336.384 205.615ZM375.115 193.528C375.127 193.842 374.963 194.022 374.623 194.07L370.079 194.752L370.965 201.089L374.225 200.704C374.58 200.655 374.788 200.784 374.847 201.091L375.522 204.57C375.563 204.864 375.46 205.028 375.212 205.063L361.68 206.954C361.386 206.995 361.21 206.87 361.154 206.578L360.399 202.873C360.348 202.502 360.43 202.301 360.647 202.271L365.796 201.693L365.072 195.499L353.526 197.208C352.907 197.294 352.474 197.134 352.228 196.727L350.852 194.505C350.747 194.315 350.684 194.15 350.665 194.011C350.645 193.871 350.721 193.451 350.891 192.748L353.776 182.406C355.933 175.147 357.068 171.359 357.181 171.044C357.295 170.728 357.394 170.533 357.478 170.458C357.56 170.368 357.71 170.307 357.926 170.277L363.079 170.74C363.318 170.754 363.457 170.845 363.496 171.013C363.535 171.181 363.428 171.654 363.173 172.431C362.935 173.206 362.6 174.199 362.17 175.411L357.157 188.985L355.5 193.216L364.623 191.61L363.725 183.831C363.676 183.475 363.844 183.27 364.231 183.216L368.91 182.491C369.228 182.51 369.407 182.659 369.446 182.937L369.614 190.747L374.048 189.961C374.296 189.927 374.44 190.057 374.481 190.351L375.115 193.528ZM282.531 237.406C282.563 237.633 282.46 237.763 282.223 237.796L280.251 238.024L282.961 257.635C283 257.914 282.897 258.081 282.652 258.136L278.935 258.86C278.801 258.879 278.667 258.782 278.532 258.57L266.595 239.649L269.332 256.526L271.74 256.032C271.885 256.012 271.981 256.098 272.029 256.292L272.72 259.319C272.728 259.528 272.619 259.648 272.392 259.68L264.896 260.681C264.751 260.701 264.641 260.59 264.565 260.348L263.926 257.803C263.919 257.604 263.988 257.494 264.132 257.474L266.553 257.073L264.215 240.345L261.4 240.864C261.286 240.87 261.21 240.854 261.173 240.817C261.145 240.768 261.112 240.684 261.074 240.563L260.864 237.815C260.857 237.617 260.966 237.491 261.19 237.439L267.951 236.146C268.222 236.13 268.433 236.247 268.584 236.5L280.114 254.988L277.378 238.347L274.968 238.605C274.855 238.621 274.779 238.605 274.741 238.558C274.703 238.511 274.67 238.426 274.642 238.304L274.376 235.722C274.366 235.502 274.475 235.377 274.702 235.345L281.615 234.347C281.73 234.342 281.806 234.363 281.844 234.41C281.881 234.447 281.914 234.532 281.943 234.664L282.531 237.406ZM287.075 248.809C286.829 247.045 286.769 245.559 286.894 244.353C287.029 243.135 287.336 242.135 287.816 241.353C288.712 239.934 290.372 239.055 292.796 238.717C294.488 238.48 295.745 238.478 296.566 238.71C297.397 238.941 298.065 239.242 298.57 239.614C299.084 239.983 299.549 240.486 299.964 241.123C300.798 242.426 301.363 244.135 301.658 246.25C301.953 248.354 302.03 250 301.891 251.187C301.762 252.373 301.452 253.352 300.961 254.125C300.043 255.537 298.362 256.413 295.917 256.755C293.358 257.113 291.41 256.754 290.071 255.679C288.544 254.462 287.545 252.172 287.075 248.809ZM298.286 252.148C298.538 251.693 298.689 251.082 298.74 250.318C298.791 249.554 298.742 248.635 298.592 247.562C298.442 246.489 298.264 245.63 298.058 244.986C297.852 244.342 297.616 243.817 297.349 243.413C297.091 242.997 296.806 242.684 296.493 242.475C296.178 242.257 295.847 242.108 295.5 242.031C294.978 241.914 294.31 241.913 293.495 242.027C292.68 242.141 292.039 242.293 291.571 242.485C291.104 242.676 290.738 242.996 290.475 243.443C289.976 244.312 289.892 245.933 290.224 248.306C290.695 251.679 291.869 253.456 293.745 253.635C294.321 253.691 294.934 253.674 295.584 253.583C296.234 253.492 296.781 253.347 297.227 253.148C297.681 252.938 298.034 252.604 298.286 252.148ZM314.26 253.781C313.769 253.881 313.039 253.999 312.069 254.135C311.109 254.269 310.312 254.28 309.676 254.17C309.05 254.057 308.511 253.812 308.058 253.433C307.165 252.685 306.585 251.362 306.32 249.464C306.148 248.236 306 247.063 305.876 245.944C305.76 244.814 305.651 243.814 305.551 242.945C305.459 242.064 305.369 241.193 305.28 240.332L303.201 240.465C302.993 240.484 302.87 240.359 302.833 240.091L302.569 238.313C302.537 238.086 302.635 237.957 302.861 237.925L305.021 237.576C304.967 237.037 304.916 236.523 304.869 236.035L304.666 233.681C304.621 233.13 304.619 232.815 304.66 232.736C304.701 232.646 304.786 232.581 304.917 232.542L307.748 231.799C307.965 231.769 308.089 231.867 308.121 232.094C308.167 232.424 308.215 233.18 308.264 234.362L308.397 237.009L314.44 235.991C314.667 235.96 314.797 236.068 314.832 236.315L315.185 238.838C315.213 239.044 315.115 239.168 314.89 239.21L308.586 239.823C308.748 242.261 308.954 244.378 309.205 246.173C309.456 247.968 309.654 249.124 309.8 249.64C309.956 250.155 310.157 250.542 310.404 250.802C310.824 251.248 311.606 251.391 312.752 251.231C313.082 251.185 313.379 251.133 313.645 251.075C313.563 250.718 313.51 250.452 313.486 250.277C313.46 250.091 313.543 249.969 313.735 249.91L316.276 249.24C316.492 249.209 316.617 249.313 316.65 249.55L317.261 253.472C317.286 253.648 317.223 253.762 317.073 253.814L314.834 254.506C314.594 254.518 314.446 254.439 314.391 254.268L314.26 253.781ZM326.246 231.517C326.098 231.506 326.001 231.42 325.958 231.258L325.776 228.38C325.752 228.131 325.828 227.994 326.003 227.97L337.367 226.65L337.237 225.832C337.204 225.594 337.299 225.444 337.521 225.382L339.936 224.823C340.111 224.799 340.236 224.902 340.311 225.134L342.055 231.516C342.078 231.682 341.972 231.791 341.738 231.845L338.954 232.471C338.541 232.528 338.296 232.357 338.22 231.958L337.875 229.829L331.769 230.509L332.691 237.89L340.671 236.743C340.857 236.717 340.963 236.802 340.991 236.998L341.233 239.52C341.245 239.76 341.123 239.898 340.865 239.934L333.053 240.821L333.929 247.766L337.889 246.976C338.106 246.946 338.24 247.043 338.293 247.267L338.843 249.967C338.852 250.102 338.844 250.198 338.82 250.254C338.797 250.31 338.728 250.346 338.615 250.362L329.371 251.843C329.245 251.839 329.148 251.827 329.082 251.804C329.025 251.77 328.982 251.692 328.954 251.57L328.391 248.777C328.362 248.571 328.439 248.444 328.622 248.398L330.584 248.218L328.312 231.055L326.246 231.517ZM346.374 240.521C346.127 238.757 346.067 237.272 346.193 236.066C346.328 234.848 346.635 233.848 347.115 233.065C348.01 231.646 349.67 230.768 352.095 230.429C353.787 230.192 355.043 230.19 355.864 230.423C356.696 230.653 357.364 230.954 357.868 231.326C358.383 231.696 358.847 232.199 359.262 232.835C360.097 234.138 360.662 235.847 360.957 237.962C361.251 240.067 361.329 241.712 361.19 242.899C361.061 244.085 360.751 245.064 360.259 245.838C359.342 247.249 357.66 248.126 355.215 248.467C352.657 248.825 350.708 248.466 349.369 247.391C347.843 246.174 346.844 243.884 346.374 240.521ZM357.585 243.861C357.837 243.405 357.988 242.795 358.039 242.03C358.09 241.266 358.04 240.347 357.89 239.274C357.74 238.201 357.563 237.343 357.357 236.698C357.151 236.054 356.915 235.529 356.648 235.125C356.39 234.709 356.104 234.396 355.791 234.188C355.477 233.969 355.146 233.82 354.798 233.743C354.277 233.626 353.609 233.625 352.794 233.739C351.979 233.853 351.338 234.006 350.87 234.197C350.403 234.389 350.037 234.708 349.773 235.155C349.274 236.024 349.191 237.645 349.522 240.018C349.994 243.391 351.168 245.168 353.044 245.347C353.62 245.404 354.232 245.386 354.882 245.295C355.532 245.205 356.08 245.06 356.526 244.861C356.98 244.65 357.333 244.317 357.585 243.861ZM377.196 227.725C377.361 227.702 377.461 227.814 377.496 228.062L379.476 241.101L381.539 240.734C381.747 240.715 381.867 240.824 381.9 241.062L382.017 243.933C382.037 244.151 381.929 244.276 381.692 244.309L377.869 244.844C377.549 244.888 377.311 244.722 377.153 244.344L376.563 242.833C375.065 244.536 373.228 245.54 371.051 245.844C368.008 246.269 366.215 244.537 365.671 240.648C365.482 239.296 365.349 237.779 365.272 236.097L365.092 232.556L363.12 232.895C362.904 232.925 362.778 232.817 362.743 232.569L362.67 229.787C362.673 229.66 362.694 229.579 362.731 229.542C362.776 229.493 362.86 229.455 362.983 229.428L367.921 228.864C368.065 228.844 368.153 228.947 368.185 229.174C368.203 229.676 368.229 230.241 368.264 230.867C368.481 235.58 368.666 238.483 368.819 239.577C368.972 240.67 369.289 241.436 369.771 241.874C370.251 242.301 371.028 242.439 372.101 242.289C373.174 242.139 374.467 241.422 375.981 240.138L374.737 231.24L372.788 231.402C372.641 231.402 372.541 231.326 372.488 231.176L372.425 228.581C372.435 228.349 372.532 228.219 372.718 228.193L377.196 227.725ZM392.973 228.628C391.663 228.811 390.242 229.557 388.711 230.865L390.192 240.108L391.853 239.687C392.028 239.662 392.128 239.737 392.152 239.913L392.194 242.353C392.184 242.585 392.086 242.715 391.901 242.741L385.448 243.642C385.283 243.665 385.183 243.553 385.148 243.306L385.127 240.895C385.138 240.672 385.236 240.548 385.422 240.522L386.737 240.338L385.308 230.11L382.931 230.379C382.725 230.408 382.605 230.298 382.57 230.051L382.474 227.335C382.471 227.156 382.579 227.031 382.8 226.958L386.998 225.724C387.184 225.698 387.293 225.804 387.326 226.041L387.701 228.718C389.529 226.296 391.469 224.941 393.522 224.654C395.874 224.326 397.434 225.249 398.201 227.424C398.449 228.147 398.618 228.833 398.709 229.483C398.799 230.123 398.869 230.665 398.921 231.11C398.971 231.545 399.023 232.027 399.076 232.556L399.27 234.169C399.328 234.74 399.387 235.31 399.446 235.88L399.613 237.529C399.666 238.058 399.713 238.546 399.754 238.992L401.523 238.666C401.74 238.636 401.865 238.745 401.9 238.992L402.218 241.267C402.235 241.391 402.216 241.478 402.16 241.528C402.112 241.566 402.028 241.599 401.905 241.626L397.465 242.594C397.238 242.626 397.109 242.528 397.077 242.301C396.951 241.172 396.819 240.113 396.68 239.122L396.35 236.534C396.248 235.801 396.152 235.115 396.062 234.476L395.667 231.644C395.488 230.364 395.266 229.565 395 229.244C394.733 228.913 394.447 228.711 394.142 228.638C393.837 228.565 393.448 228.562 392.973 228.628ZM410.993 218.032C410.786 218.061 410.666 217.951 410.631 217.704L410.44 215.206C410.432 214.997 410.536 214.877 410.752 214.847L416.101 214.399C416.29 214.394 416.399 214.5 416.43 214.716L419.466 236.442L421.067 236.045C421.274 236.016 421.39 236.1 421.418 236.296L421.475 238.733C421.468 238.913 421.364 239.033 421.162 239.093L417.411 240.248C417.215 240.275 417.101 240.176 417.069 239.949L416.979 238.399C415.345 239.353 413.842 239.926 412.47 240.118C411.108 240.308 409.984 240.276 409.096 240.022C408.209 239.767 407.455 239.304 406.835 238.634C405.715 237.391 404.934 235.187 404.491 232.02C403.851 227.439 404.646 224.509 406.876 223.23C407.625 222.799 408.681 222.489 410.043 222.298C411.404 222.108 412.884 222.196 414.481 222.561L413.599 217.715L410.993 218.032ZM415.013 225.69C413.487 225.535 412.255 225.523 411.316 225.654C410.388 225.784 409.686 225.956 409.211 226.169C408.746 226.382 408.387 226.71 408.134 227.156C407.644 228.013 407.552 229.536 407.857 231.723C408.162 233.899 408.605 235.342 409.188 236.049C409.82 236.812 410.864 237.093 412.319 236.889C413.515 236.722 414.772 236.341 416.087 235.747L415.013 225.69Z" fill="#D9D9D9"/>
<path d="M533.5 458.5H497.5C497.167 456.167 496.7 450.3 497.5 445.5C498.5 439.5 498 413 497 403.5C496 394 488 391.5 482.5 389C477 386.5 464 386.5 456.5 383C449 379.5 446 355 446 348.5C446 342 441.5 297.5 446 283.5C450.5 269.5 457 270.5 464 272C471 273.5 480 282 474.5 301.5C469 321 473.5 346 475.5 350C477.5 354 484.5 364.5 492.5 355C500.5 345.5 497 306 496 299.5C495 293 493.5 231 496 217.5C498.5 204 510 201 514.5 200.5C519 200 526.5 206 528.5 212.5C530.5 219 533 238 529.5 249.5C526 261 522.5 306 524 309C525.5 312 540.5 316 543 305C545.5 294 538 265 540.5 252.5C543 240 552 241 553 241C554 241 563.5 245.5 567.5 257C571.5 268.5 563.5 324 563.5 329.5C563.5 335 553.5 343 547 339.5C540.5 336 533.5 340 529 346C524.5 352 527.5 383 529 409.5C530.2 430.7 532.5 451 533.5 458.5Z" fill="#71717A"/>
<path d="M123.482 460H96.9822C95.9822 452.5 94.0822 434.8 94.4822 424C94.9822 410.5 96.9822 390.5 97.4822 384.5C97.9823 378.5 97.4822 347 93.4822 343C89.4822 339 81.9822 342.5 77.4822 342C72.9822 341.5 68.4822 332.5 64.4822 326.5C60.4822 320.5 59.9822 285 59.4822 281.5C58.9822 278 56.9822 244.5 67.4822 241C77.9822 237.5 79.9822 239 82.4822 240.5C84.9822 242 83.9822 256.5 82.4822 263C80.9822 269.5 78.4822 304 79.9822 308.5C81.4822 313 93.9822 315.5 96.9822 308.5C99.9822 301.5 96.9822 285.5 96.9822 270.5C96.9822 260.192 94.4822 247 93.9822 236.5C93.4822 226 82.9822 188.5 84.9822 171.5C86.9822 154.5 97.4822 147.5 105.482 148C113.482 148.5 117.482 157.5 118.482 165.5C119.482 173.5 114.982 196.5 113.482 205C111.982 213.5 114.982 224.5 119.982 228C124.982 231.5 130.482 228.5 132.982 222.5C135.482 216.5 132.482 188 132.982 184C133.482 180 132.982 175 139.982 173.5C146.982 172 150.482 174.5 150.482 177C150.482 179.5 150.482 193.5 151.482 199.5C152.482 205.5 153.482 233.5 151.482 240.5C149.482 247.5 140.982 248 132.982 249.5C124.982 251 121.482 262 121.482 265C121.482 268 121.982 306.5 119.982 317C117.982 327.5 115.982 345.5 123.482 354.5C130.982 363.5 138.482 357 143.482 350.5C148.482 344 141.482 313.5 140.982 304C140.482 294.5 141.982 290 146.482 289.5C150.982 289 163.482 288 161.982 297C160.482 306 163.482 318 163.482 330C163.482 342 164.518 362 159 370.5C155.556 375.805 152.5 377.5 142 378C131.512 378.499 125.982 377.5 123.482 379.5C120.982 381.5 121.982 402 121.982 415.5C121.982 426.3 122.982 449.667 123.482 460Z" fill="#71717A"/>
<path d="M276.559 421.5C269.359 468.7 232.225 472.167 214.559 468C201.725 464.167 174.659 449.1 169.059 419.5C162.059 382.5 191.559 368.5 205.059 366C218.559 363.5 285.559 362.5 276.559 421.5Z" fill="#4A4A56"/>
<path d="M168.559 371L204.559 373.5H246.559L283.559 362.5H243.559L274.559 341.5L238.559 353.5L246.559 328L229.559 349L224.059 318L220.059 350.5L197.059 331L210.059 352L170.059 350.5L207.059 358L168.559 371Z" fill="#4A4A56"/>
<path d="M181.596 419.393C193.373 447.408 174.367 461.63 163.393 465.239C155.152 467.423 135.452 468.239 122.576 454.032C106.48 436.273 117.841 418.87 124.339 413.026C130.837 407.183 166.875 384.375 181.596 419.393Z" fill="#4A4A56"/>
<path d="M106.187 427.87L126.56 417.264L149.359 403.307L165.789 385.039L144.075 398.332L153.925 376.631L138.37 395.108L134.239 378.607L131.989 395.656L118.701 380.656L127.33 399.628L108.365 396.686L122.401 403.765L100.188 416.244L122.766 408.019L106.187 427.87Z" fill="#4A4A56"/>
<path d="M615 465.5H590.5L569 382L595 430L584.5 337.5L604 430L616.5 298.5V395.5L645 315.5L624.5 405L673.5 341L623 434L678 391.5L615 465.5Z" fill="#4A4A56"/>
<path d="M557.875 461.746L537.988 463.868L514.911 412.526L535.336 439.009L532.312 410.67L545.352 433.917L547.685 380.368L558.604 421.441L579.504 376.973L571.491 429.117L599.445 413.061L557.875 461.746Z" fill="#4A4A56"/>
<path d="M0 481.825V445.825H52C65.5 445.825 103.5 449.325 114 449.325C124.5 449.325 182 444.325 191.5 443.325C201 442.325 304.5 445.825 324 445.825C343.5 445.825 429.5 449.325 436.5 449.325C443.5 449.325 530 445.825 545 445.825C560 445.825 600.5 445.825 617 449.325C633.5 452.825 638 445.825 651.5 442.825C662.3 440.425 680.667 443.825 688.5 445.825V481.825H0Z" fill="#52525B"/>
</svg>
