<svg width="689" height="482" viewBox="0 0 689 482" fill="none" xmlns="http://www.w3.org/2000/svg">
<circle cx="523.5" cy="154.5" r="154.5" fill="#D9D9D9"/>
<path fill-rule="evenodd" clip-rule="evenodd" d="M434.742 118.002C448.283 118.128 460.362 126.281 464.783 138.956C469.476 152.41 466.932 168.284 455.103 176.371C443.925 184.013 429.679 178.405 418.734 170.438C408.033 162.649 399.063 150.967 402.906 138.378C406.948 125.137 420.773 117.871 434.742 118.002Z" fill="#C4C4C4"/>
<mask id="mask0_1_39" style="mask-type:alpha" maskUnits="userSpaceOnUse" x="402" y="118" width="65" height="62">
<path fill-rule="evenodd" clip-rule="evenodd" d="M434.742 118.002C448.283 118.128 460.362 126.281 464.783 138.956C469.476 152.41 466.932 168.284 455.103 176.371C443.925 184.013 429.679 178.405 418.734 170.438C408.033 162.649 399.063 150.967 402.906 138.378C406.948 125.137 420.773 117.871 434.742 118.002Z" fill="#C4C4C4"/>
</mask>
<g mask="url(#mask0_1_39)">
<path d="M466.5 147.5C461.3 117.5 430.667 118 416 122L429 106L473.5 127.5L466.5 147.5Z" fill="#BFBDBD"/>
</g>
<path fill-rule="evenodd" clip-rule="evenodd" d="M447.768 54.0008C455.828 54.0619 463.975 57.787 466.397 65.5032C468.765 73.0497 463.822 80.297 457.505 85.0297C450.855 90.0119 442.181 93.4587 435.302 88.7992C427.808 83.7228 425.194 73.7534 428.253 65.2143C431.057 57.3874 439.481 53.9381 447.768 54.0008Z" fill="#C4C4C4"/>
<mask id="mask1_1_39" style="mask-type:alpha" maskUnits="userSpaceOnUse" x="427" y="54" width="40" height="37">
<path fill-rule="evenodd" clip-rule="evenodd" d="M447.768 54.0008C455.828 54.0619 463.975 57.787 466.397 65.5032C468.765 73.0497 463.822 80.297 457.505 85.0297C450.855 90.0119 442.181 93.4587 435.302 88.7992C427.808 83.7228 425.194 73.7534 428.253 65.2143C431.057 57.3874 439.481 53.9381 447.768 54.0008Z" fill="#C4C4C4"/>
</mask>
<g mask="url(#mask1_1_39)">
<path d="M449.5 45.5L437.5 56C451 54 465.351 57 466.5 72L475 64L449.5 45.5Z" fill="#BFBDBD"/>
</g>
<path fill-rule="evenodd" clip-rule="evenodd" d="M492.787 79.0004C487.671 79.0488 484.147 83.5738 482.643 88.448C481.223 93.0487 482.078 98.2345 485.973 101.081C489.915 103.961 495.283 103.445 499.225 100.565C503.116 97.724 504.917 92.858 503.542 88.2503C502.048 83.2494 498.022 78.9509 492.787 79.0004Z" fill="#C4C4C4"/>
<mask id="mask2_1_39" style="mask-type:alpha" maskUnits="userSpaceOnUse" x="482" y="79" width="22" height="24">
<path fill-rule="evenodd" clip-rule="evenodd" d="M492.787 79.0004C487.671 79.0488 484.147 83.5738 482.643 88.448C481.223 93.0487 482.078 98.2345 485.973 101.081C489.915 103.961 495.283 103.445 499.225 100.565C503.116 97.724 504.917 92.858 503.542 88.2503C502.048 83.2494 498.022 78.9509 492.787 79.0004Z" fill="#C4C4C4"/>
</mask>
<g mask="url(#mask2_1_39)">
<path d="M491 74.5L485.5 83C496.3 77.8 502.333 86.8333 504 92L513 84L491 74.5Z" fill="#BFBDBD"/>
</g>
<path fill-rule="evenodd" clip-rule="evenodd" d="M578.504 251.977C585.25 251.701 590.89 247.133 593.024 240.623C595.212 233.947 593.759 226.45 588.281 222.149C582.279 217.437 573.998 216.412 567.747 220.776C560.976 225.504 557.167 234.097 559.884 241.977C562.45 249.422 570.75 252.293 578.504 251.977Z" fill="#C4C4C4"/>
<mask id="mask3_1_39" style="mask-type:alpha" maskUnits="userSpaceOnUse" x="559" y="218" width="35" height="34">
<path fill-rule="evenodd" clip-rule="evenodd" d="M578.504 251.977C585.25 251.701 590.89 247.133 593.024 240.623C595.212 233.947 593.759 226.45 588.281 222.149C582.279 217.437 573.998 216.412 567.747 220.776C560.976 225.504 557.167 234.097 559.884 241.977C562.45 249.422 570.75 252.293 578.504 251.977Z" fill="#C4C4C4"/>
</mask>
<g mask="url(#mask3_1_39)">
<path d="M576 209L565 222C583 214 592.167 227 594.5 234.5L605 228.5L576 209Z" fill="#BFBDBD"/>
</g>
<path fill-rule="evenodd" clip-rule="evenodd" d="M606.031 69.0058C612.748 68.8349 619.35 72.4642 621.407 78.9648C623.446 85.4113 620.002 92.062 614.561 95.9712C609.352 99.7138 602.386 100.168 597.253 96.3186C592.229 92.5505 590.917 85.7227 592.855 79.691C594.784 73.6901 599.821 69.1637 606.031 69.0058Z" fill="#C4C4C4"/>
<mask id="mask4_1_39" style="mask-type:alpha" maskUnits="userSpaceOnUse" x="592" y="69" width="30" height="30">
<path fill-rule="evenodd" clip-rule="evenodd" d="M606.031 69.0058C612.748 68.8349 619.35 72.4642 621.407 78.9648C623.446 85.4113 620.002 92.062 614.561 95.9712C609.352 99.7138 602.386 100.168 597.253 96.3186C592.229 92.5505 590.917 85.7227 592.855 79.691C594.784 73.6901 599.821 69.1637 606.031 69.0058Z" fill="#C4C4C4"/>
</mask>
<g mask="url(#mask4_1_39)">
<path d="M602.5 64.5L598 72C612.4 68 620 77 622 82L627 73.5L602.5 64.5Z" fill="#BFBDBD"/>
</g>
<path d="M438.5 458.5H402.5C402.167 456.167 401.7 450.3 402.5 445.5C403.5 439.5 403 413 402 403.5C401 394 393 391.5 387.5 389C382 386.5 369 386.5 361.5 383C354 379.5 351 355 351 348.5C351 342 346.5 297.5 351 283.5C355.5 269.5 362 270.5 369 272C376 273.5 385 282 379.5 301.5C374 321 378.5 346 380.5 350C382.5 354 389.5 364.5 397.5 355C405.5 345.5 402 306 401 299.5C400 293 398.5 231 401 217.5C403.5 204 415 201 419.5 200.5C424 200 431.5 206 433.5 212.5C435.5 219 438 238 434.5 249.5C431 261 427.5 306 429 309C430.5 312 445.5 316 448 305C450.5 294 443 265 445.5 252.5C448 240 457 241 458 241C459 241 468.5 245.5 472.5 257C476.5 268.5 468.5 324 468.5 329.5C468.5 335 458.5 343 452 339.5C445.5 336 438.5 340 434 346C429.5 352 432.5 383 434 409.5C435.2 430.7 437.5 451 438.5 458.5Z" fill="#71717A"/>
<path d="M123.482 460H96.9822C95.9822 452.5 94.0822 434.8 94.4822 424C94.9822 410.5 96.9822 390.5 97.4822 384.5C97.9823 378.5 97.4822 347 93.4822 343C89.4822 339 81.9822 342.5 77.4822 342C72.9822 341.5 68.4822 332.5 64.4822 326.5C60.4822 320.5 59.9822 285 59.4822 281.5C58.9822 278 56.9822 244.5 67.4822 241C77.9822 237.5 79.9822 239 82.4822 240.5C84.9822 242 83.9822 256.5 82.4822 263C80.9822 269.5 78.4822 304 79.9822 308.5C81.4822 313 93.9822 315.5 96.9822 308.5C99.9822 301.5 96.9822 285.5 96.9822 270.5C96.9822 260.192 94.4822 247 93.9822 236.5C93.4822 226 82.9822 188.5 84.9822 171.5C86.9822 154.5 97.4822 147.5 105.482 148C113.482 148.5 117.482 157.5 118.482 165.5C119.482 173.5 114.982 196.5 113.482 205C111.982 213.5 114.982 224.5 119.982 228C124.982 231.5 130.482 228.5 132.982 222.5C135.482 216.5 132.482 188 132.982 184C133.482 180 132.982 175 139.982 173.5C146.982 172 150.482 174.5 150.482 177C150.482 179.5 150.482 193.5 151.482 199.5C152.482 205.5 153.482 233.5 151.482 240.5C149.482 247.5 140.982 248 132.982 249.5C124.982 251 121.482 262 121.482 265C121.482 268 121.982 306.5 119.982 317C117.982 327.5 115.982 345.5 123.482 354.5C130.982 363.5 138.482 357 143.482 350.5C148.482 344 141.482 313.5 140.982 304C140.482 294.5 141.982 290 146.482 289.5C150.982 289 163.482 288 161.982 297C160.482 306 163.482 318 163.482 330C163.482 342 164.518 362 159 370.5C155.556 375.805 152.5 377.5 142 378C131.512 378.499 125.982 377.5 123.482 379.5C120.982 381.5 121.982 402 121.982 415.5C121.982 426.3 122.982 449.667 123.482 460Z" fill="#71717A"/>
<path d="M276.559 421.5C269.359 468.7 232.225 472.167 214.559 468C201.725 464.167 174.659 449.1 169.059 419.5C162.059 382.5 191.559 368.5 205.059 366C218.559 363.5 285.559 362.5 276.559 421.5Z" fill="#4A4A56"/>
<path d="M168.559 371L204.559 373.5H246.559L283.559 362.5H243.559L274.559 341.5L238.559 353.5L246.559 328L229.559 349L224.059 318L220.059 350.5L197.059 331L210.059 352L170.059 350.5L207.059 358L168.559 371Z" fill="#4A4A56"/>
<path d="M181.596 419.393C193.373 447.408 174.367 461.63 163.393 465.239C155.152 467.423 135.452 468.239 122.576 454.032C106.48 436.273 117.841 418.87 124.339 413.026C130.837 407.183 166.875 384.375 181.596 419.393Z" fill="#4A4A56"/>
<path d="M106.187 427.87L126.56 417.264L149.359 403.307L165.789 385.039L144.075 398.332L153.925 376.631L138.37 395.108L134.239 378.607L131.989 395.656L118.701 380.656L127.33 399.628L108.365 396.686L122.401 403.765L100.188 416.244L122.766 408.019L106.187 427.87Z" fill="#4A4A56"/>
<path d="M615 465.5H590.5L569 382L595 430L584.5 337.5L604 430L616.5 298.5V395.5L645 315.5L624.5 405L673.5 341L623 434L678 391.5L615 465.5Z" fill="#4A4A56"/>
<path d="M557.875 461.746L537.988 463.868L514.911 412.526L535.336 439.009L532.312 410.67L545.352 433.917L547.685 380.368L558.604 421.441L579.504 376.973L571.491 429.117L599.445 413.061L557.875 461.746Z" fill="#4A4A56"/>
<path d="M0 481.825V445.825H52C65.5 445.825 103.5 449.325 114 449.325C124.5 449.325 182 444.325 191.5 443.325C201 442.325 304.5 445.825 324 445.825C343.5 445.825 429.5 449.325 436.5 449.325C443.5 449.325 530 445.825 545 445.825C560 445.825 600.5 445.825 617 449.325C633.5 452.825 638 445.825 651.5 442.825C662.3 440.425 680.667 443.825 688.5 445.825V481.825H0Z" fill="#52525B"/>
</svg>
