<svg width="689" height="472" viewBox="0 0 689 472" fill="none" xmlns="http://www.w3.org/2000/svg">
<path d="M678 283.5C678 347.277 656.94 406.135 621.396 453.5H394.5H167.604C132.06 406.135 111 347.277 111 283.5C111 126.927 237.927 0 394.5 0C551.073 0 678 126.927 678 283.5Z" fill="#F9FAFB"/>
<path d="M639 283.5C639 350.314 612.2 410.868 568.764 455H394.5H220.236C176.8 410.868 150 350.314 150 283.5C150 148.466 259.466 39 394.5 39C529.534 39 639 148.466 639 283.5Z" fill="#F3F4F6"/>
<rect x="356" y="236.952" width="21.3734" height="221" transform="rotate(-7.9385 356 236.952)" fill="#D9D9D9"/>
<path d="M487.263 237.054L244.956 271.603L241.296 272.125L238.187 266.037C241.337 263.682 247.299 258.695 245.945 257.582C244.253 256.19 241.096 255.008 241.6 253.303C242.003 251.939 243.492 250.856 244.186 250.485L238.833 249.615L232.739 212.109L249.395 203.202C243.234 201.903 230.867 198.985 230.685 197.705C230.228 194.504 230.501 178.951 230.694 171.576C312.119 159.421 475.352 135.711 476.889 138.105C478.809 141.097 478.705 177.037 480.512 179.229C482.318 181.421 489.249 182.882 487.899 183.891C486.819 184.698 483.437 187.521 481.881 188.832L486.844 192.207L461.403 202.366L487.433 206.819L481.805 209.255C482.293 209.185 483.923 209.443 486.54 211.029C489.156 212.616 488.112 229.04 487.263 237.054Z" fill="#CECECE"/>
<path d="M341.465 192.718C341.477 193.032 341.313 193.212 340.972 193.26L336.429 193.942L337.315 200.279L340.574 199.895C340.93 199.845 341.138 199.974 341.196 200.281L341.872 203.76C341.913 204.054 341.81 204.218 341.562 204.253L328.03 206.144C327.736 206.185 327.56 206.06 327.504 205.768L326.749 202.064C326.697 201.692 326.78 201.491 326.996 201.461L332.146 200.883L331.422 194.69L319.875 196.398C319.256 196.484 318.824 196.324 318.578 195.917L317.202 193.695C317.097 193.505 317.034 193.34 317.015 193.201C316.995 193.061 317.071 192.641 317.241 191.938L320.126 181.596C322.282 174.337 323.418 170.549 323.531 170.234C323.645 169.918 323.744 169.723 323.828 169.648C323.91 169.558 324.059 169.497 324.276 169.467L329.429 169.93C329.667 169.944 329.806 170.035 329.846 170.203C329.885 170.371 329.777 170.844 329.523 171.621C329.284 172.396 328.95 173.389 328.52 174.601L323.507 188.176L321.85 192.407L330.973 190.8L330.075 183.021C330.025 182.666 330.194 182.461 330.581 182.406L335.26 181.681C335.578 181.7 335.757 181.849 335.796 182.127L335.964 189.937L340.398 189.152C340.646 189.117 340.79 189.247 340.831 189.541L341.465 192.718ZM347.5 194.075C346.807 192.058 346.307 189.943 345.997 187.73C345.686 185.502 345.462 183.561 345.326 181.908C345.189 180.254 345.152 178.69 345.214 177.214C345.289 175.72 345.491 174.343 345.82 173.082C346.146 171.806 346.659 170.677 347.358 169.696C348.805 167.632 351.161 166.372 354.426 165.916C360.987 164.999 365.065 170.243 366.659 181.647C367.574 188.193 367.442 193.063 366.263 196.257C364.996 199.716 362.304 201.733 358.187 202.308C353.22 203.002 349.657 200.258 347.5 194.075ZM358.163 197.058C359.324 196.895 360.197 196.426 360.783 195.65C361.382 194.857 361.77 193.793 361.946 192.459C362.233 190.336 362.022 186.737 361.313 181.661C360.748 177.622 359.988 174.833 359.031 173.295C358.028 171.652 356.521 170.971 354.51 171.253C353.395 171.408 352.513 171.753 351.861 172.285C351.208 172.803 350.763 173.63 350.528 174.767C350.095 176.752 350.279 180.608 351.08 186.333C351.625 190.233 352.355 192.979 353.272 194.57C354.398 196.527 356.028 197.356 358.163 197.058ZM396.895 184.971C396.907 185.285 396.743 185.465 396.402 185.513L391.859 186.195L392.745 192.532L396.004 192.148C396.36 192.098 396.568 192.227 396.626 192.534L397.302 196.013C397.343 196.307 397.24 196.471 396.992 196.506L383.46 198.397C383.166 198.438 382.99 198.313 382.934 198.021L382.179 194.316C382.127 193.945 382.21 193.744 382.426 193.714L387.576 193.136L386.852 186.942L375.305 188.651C374.686 188.737 374.254 188.577 374.008 188.17L372.632 185.948C372.527 185.758 372.464 185.593 372.445 185.454C372.425 185.314 372.501 184.894 372.671 184.191L375.556 173.849C377.712 166.59 378.848 162.802 378.961 162.487C379.075 162.171 379.174 161.976 379.258 161.901C379.34 161.811 379.489 161.75 379.706 161.72L384.859 162.183C385.097 162.197 385.236 162.288 385.276 162.456C385.315 162.624 385.207 163.097 384.953 163.874C384.714 164.649 384.38 165.642 383.95 166.854L378.937 180.428L377.28 184.659L386.403 183.053L385.505 175.274C385.455 174.918 385.624 174.713 386.011 174.659L390.69 173.934C391.008 173.953 391.187 174.102 391.226 174.38L391.394 182.19L395.828 181.404C396.076 181.37 396.22 181.5 396.261 181.794L396.895 184.971ZM304.311 228.849C304.343 229.076 304.24 229.206 304.003 229.239L302.031 229.468L304.74 249.078C304.779 249.357 304.676 249.524 304.432 249.579L300.715 250.303C300.581 250.322 300.446 250.225 300.312 250.013L288.375 231.092L291.112 247.97L293.52 247.475C293.664 247.455 293.761 247.542 293.809 247.735L294.5 250.762C294.508 250.971 294.399 251.092 294.172 251.123L286.676 252.124C286.531 252.144 286.421 252.033 286.345 251.791L285.705 249.246C285.699 249.047 285.767 248.937 285.912 248.917L288.333 248.516L285.995 231.788L283.18 232.307C283.065 232.313 282.989 232.297 282.953 232.26C282.925 232.212 282.892 232.127 282.854 232.006L282.644 229.258C282.637 229.06 282.746 228.934 282.97 228.882L289.731 227.59C290.002 227.573 290.213 227.69 290.364 227.943L301.893 246.431L299.158 229.79L296.748 230.048C296.635 230.064 296.559 230.048 296.521 230.001C296.483 229.954 296.45 229.869 296.422 229.747L296.156 227.165C296.146 226.945 296.255 226.82 296.482 226.788L303.395 225.79C303.51 225.785 303.586 225.806 303.624 225.853C303.661 225.89 303.694 225.975 303.723 226.107L304.311 228.849ZM308.855 240.252C308.609 238.488 308.548 237.003 308.674 235.796C308.809 234.579 309.116 233.578 309.596 232.796C310.491 231.377 312.151 230.498 314.576 230.16C316.268 229.923 317.524 229.921 318.346 230.153C319.177 230.384 319.845 230.685 320.349 231.057C320.864 231.426 321.328 231.929 321.743 232.566C322.578 233.869 323.143 235.578 323.438 237.693C323.732 239.797 323.81 241.443 323.671 242.63C323.542 243.816 323.232 244.795 322.74 245.568C321.823 246.98 320.141 247.856 317.696 248.198C315.138 248.556 313.189 248.197 311.851 247.122C310.324 245.905 309.325 243.615 308.855 240.252ZM320.066 243.592C320.318 243.136 320.469 242.525 320.52 241.761C320.571 240.997 320.522 240.078 320.372 239.005C320.222 237.932 320.044 237.074 319.838 236.429C319.632 235.785 319.396 235.26 319.129 234.856C318.871 234.44 318.585 234.127 318.272 233.919C317.958 233.7 317.627 233.551 317.279 233.474C316.758 233.357 316.09 233.356 315.275 233.47C314.46 233.584 313.819 233.736 313.351 233.928C312.884 234.119 312.518 234.439 312.255 234.886C311.755 235.755 311.672 237.376 312.003 239.749C312.475 243.122 313.649 244.899 315.525 245.078C316.101 245.134 316.714 245.117 317.364 245.026C318.014 244.935 318.561 244.791 319.007 244.592C319.461 244.381 319.814 244.047 320.066 243.592ZM336.04 245.224C335.549 245.324 334.818 245.442 333.849 245.578C332.889 245.712 332.091 245.724 331.455 245.613C330.83 245.5 330.29 245.255 329.838 244.876C328.944 244.128 328.365 242.805 328.1 240.907C327.928 239.679 327.78 238.506 327.655 237.388C327.539 236.257 327.431 235.257 327.331 234.388C327.239 233.507 327.149 232.636 327.06 231.775L324.98 231.908C324.773 231.927 324.65 231.802 324.613 231.534L324.348 229.756C324.317 229.529 324.414 229.4 324.641 229.368L326.801 229.019C326.747 228.48 326.696 227.966 326.649 227.478L326.446 225.124C326.401 224.573 326.399 224.258 326.44 224.179C326.48 224.089 326.566 224.024 326.697 223.985L329.528 223.242C329.744 223.212 329.869 223.31 329.9 223.537C329.947 223.867 329.994 224.623 330.044 225.805L330.177 228.452L336.219 227.434C336.446 227.403 336.577 227.511 336.612 227.758L336.964 230.281C336.993 230.487 336.895 230.611 336.669 230.653L330.365 231.266C330.527 233.705 330.734 235.821 330.985 237.616C331.236 239.411 331.434 240.567 331.58 241.083C331.736 241.598 331.937 241.985 332.184 242.245C332.604 242.691 333.386 242.834 334.531 242.674C334.862 242.628 335.159 242.576 335.425 242.518C335.343 242.161 335.29 241.895 335.266 241.72C335.24 241.534 335.323 241.412 335.514 241.354L338.055 240.683C338.272 240.653 338.397 240.756 338.43 240.993L339.041 244.915C339.066 245.091 339.003 245.205 338.852 245.257L336.614 245.949C336.374 245.961 336.226 245.882 336.171 245.711L336.04 245.224ZM348.026 222.96C347.878 222.949 347.781 222.863 347.738 222.701L347.556 219.823C347.532 219.574 347.608 219.437 347.783 219.413L359.147 218.093L359.017 217.275C358.984 217.037 359.079 216.888 359.301 216.825L361.716 216.266C361.891 216.242 362.016 216.345 362.091 216.577L363.835 222.96C363.858 223.125 363.752 223.234 363.518 223.288L360.734 223.914C360.321 223.971 360.076 223.8 359.999 223.401L359.655 221.272L353.549 221.952L354.47 229.333L362.451 228.186C362.637 228.16 362.743 228.245 362.771 228.441L363.013 230.963C363.025 231.203 362.902 231.341 362.645 231.377L354.833 232.264L355.709 239.209L359.669 238.419C359.885 238.389 360.02 238.486 360.072 238.71L360.623 241.41C360.632 241.545 360.624 241.641 360.6 241.697C360.576 241.753 360.508 241.789 360.394 241.805L351.151 243.286C351.024 243.282 350.928 243.27 350.862 243.247C350.804 243.213 350.762 243.135 350.734 243.013L350.17 240.22C350.142 240.014 350.219 239.887 350.401 239.841L352.364 239.661L350.092 222.498L348.026 222.96ZM368.154 231.964C367.907 230.2 367.847 228.715 367.973 227.509C368.108 226.291 368.415 225.291 368.895 224.508C369.79 223.09 371.45 222.211 373.874 221.872C375.566 221.635 376.823 221.633 377.644 221.866C378.476 222.096 379.144 222.398 379.648 222.769C380.162 223.139 380.627 223.642 381.042 224.278C381.876 225.581 382.441 227.29 382.737 229.405C383.031 231.51 383.109 233.155 382.969 234.342C382.841 235.528 382.53 236.507 382.039 237.281C381.121 238.692 379.44 239.569 376.995 239.91C374.437 240.268 372.488 239.909 371.149 238.834C369.622 237.617 368.624 235.327 368.154 231.964ZM379.365 235.304C379.616 234.848 379.768 234.238 379.819 233.473C379.87 232.709 379.82 231.79 379.67 230.717C379.52 229.644 379.342 228.786 379.137 228.141C378.931 227.497 378.695 226.973 378.428 226.568C378.17 226.152 377.884 225.839 377.571 225.631C377.256 225.412 376.925 225.263 376.578 225.186C376.057 225.069 375.389 225.068 374.574 225.182C373.759 225.296 373.117 225.449 372.65 225.64C372.182 225.832 371.817 226.151 371.553 226.598C371.054 227.467 370.97 229.088 371.302 231.461C371.773 234.834 372.947 236.611 374.824 236.79C375.399 236.847 376.012 236.829 376.662 236.738C377.312 236.648 377.86 236.503 378.305 236.304C378.76 236.093 379.113 235.76 379.365 235.304ZM398.976 219.168C399.141 219.145 399.241 219.257 399.276 219.505L401.256 232.544L403.319 232.177C403.526 232.158 403.647 232.268 403.68 232.505L403.797 235.376C403.817 235.594 403.709 235.719 403.471 235.752L399.649 236.287C399.329 236.331 399.09 236.165 398.932 235.787L398.343 234.276C396.845 235.979 395.008 236.983 392.831 237.287C389.788 237.712 387.994 235.98 387.451 232.091C387.262 230.74 387.129 229.223 387.051 227.54L386.872 223.999L384.9 224.338C384.683 224.368 384.558 224.26 384.523 224.012L384.45 221.23C384.453 221.103 384.473 221.022 384.51 220.985C384.556 220.936 384.64 220.898 384.763 220.871L389.701 220.307C389.845 220.287 389.933 220.39 389.965 220.617C389.983 221.119 390.009 221.684 390.044 222.31C390.261 227.023 390.446 229.926 390.599 231.02C390.751 232.114 391.069 232.879 391.551 233.317C392.031 233.744 392.808 233.882 393.881 233.732C394.954 233.582 396.247 232.865 397.761 231.581L396.517 222.683L394.568 222.845C394.42 222.845 394.32 222.769 394.268 222.619L394.205 220.024C394.215 219.792 394.312 219.662 394.498 219.636L398.976 219.168ZM414.753 220.071C413.443 220.254 412.022 221 410.49 222.308L411.972 231.551L413.632 231.13C413.808 231.105 413.908 231.181 413.932 231.356L413.973 233.796C413.964 234.028 413.866 234.158 413.681 234.184L407.228 235.085C407.063 235.109 406.963 234.996 406.928 234.749L406.907 232.338C406.918 232.115 407.016 231.991 407.202 231.965L408.517 231.781L407.087 221.553L404.711 221.822C404.505 221.851 404.384 221.741 404.35 221.494L404.254 218.778C404.25 218.599 404.359 218.474 404.58 218.401L408.778 217.167C408.964 217.141 409.073 217.247 409.106 217.484L409.48 220.161C411.309 217.739 413.249 216.384 415.302 216.098C417.654 215.769 419.214 216.692 419.98 218.867C420.229 219.59 420.398 220.276 420.489 220.926C420.579 221.566 420.649 222.108 420.701 222.553C420.751 222.988 420.803 223.47 420.855 223.999L421.049 225.612C421.108 226.183 421.167 226.753 421.225 227.323L421.393 228.972C421.446 229.501 421.493 229.989 421.534 230.435L423.303 230.109C423.52 230.079 423.645 230.188 423.68 230.435L423.998 232.71C424.015 232.834 423.996 232.921 423.94 232.971C423.892 233.009 423.807 233.042 423.685 233.069L419.245 234.037C419.018 234.069 418.889 233.971 418.857 233.744C418.731 232.615 418.599 231.556 418.46 230.565L418.13 227.977C418.027 227.244 417.932 226.558 417.842 225.919L417.446 223.087C417.268 221.808 417.045 221.008 416.78 220.687C416.513 220.356 416.227 220.154 415.922 220.081C415.617 220.008 415.228 220.005 414.753 220.071ZM432.772 209.475C432.566 209.504 432.446 209.394 432.411 209.147L432.22 206.649C432.211 206.44 432.316 206.32 432.532 206.29L437.881 205.842C438.07 205.837 438.179 205.943 438.209 206.159L441.246 227.886L442.847 227.488C443.053 227.459 443.17 227.543 443.198 227.739L443.254 230.176C443.248 230.356 443.144 230.476 442.942 230.536L439.19 231.691C438.994 231.718 438.881 231.619 438.849 231.392L438.759 229.842C437.125 230.796 435.622 231.369 434.25 231.561C432.888 231.752 431.764 231.719 430.876 231.465C429.988 231.21 429.235 230.748 428.615 230.077C427.495 228.835 426.714 226.63 426.271 223.463C425.631 218.882 426.426 215.952 428.655 214.673C429.405 214.242 430.461 213.932 431.822 213.741C433.184 213.551 434.664 213.639 436.261 214.004L435.379 209.158L432.772 209.475ZM436.793 217.133C435.267 216.978 434.035 216.966 433.096 217.097C432.168 217.227 431.466 217.399 430.991 217.612C430.526 217.825 430.167 218.153 429.914 218.599C429.424 219.456 429.332 220.979 429.637 223.166C429.941 225.342 430.385 226.785 430.968 227.492C431.6 228.256 432.644 228.536 434.098 228.332C435.295 228.165 436.551 227.784 437.867 227.19L436.793 217.133Z" fill="white"/>
<path d="M548.5 448.5H512.5C512.167 446.167 511.7 440.3 512.5 435.5C513.5 429.5 513 403 512 393.5C511 384 503 381.5 497.5 379C492 376.5 479 376.5 471.5 373C464 369.5 461 345 461 338.5C461 332 456.5 287.5 461 273.5C465.5 259.5 472 260.5 479 262C486 263.5 495 272 489.5 291.5C484 311 488.5 336 490.5 340C492.5 344 499.5 354.5 507.5 345C515.5 335.5 512 296 511 289.5C510 283 508.5 221 511 207.5C513.5 194 525 191 529.5 190.5C534 190 541.5 196 543.5 202.5C545.5 209 548 228 544.5 239.5C541 251 537.5 296 539 299C540.5 302 555.5 306 558 295C560.5 284 553 255 555.5 242.5C558 230 567 231 568 231C569 231 578.5 235.5 582.5 247C586.5 258.5 578.5 314 578.5 319.5C578.5 325 568.5 333 562 329.5C555.5 326 548.5 330 544 336C539.5 342 542.5 373 544 399.5C545.2 420.7 547.5 441 548.5 448.5Z" fill="#E5E7EB"/>
<path d="M123.482 450H96.9822C95.9822 442.5 94.0822 424.8 94.4822 414C94.9822 400.5 96.9822 380.5 97.4822 374.5C97.9823 368.5 97.4822 337 93.4822 333C89.4822 329 81.9822 332.5 77.4822 332C72.9822 331.5 68.4822 322.5 64.4822 316.5C60.4822 310.5 59.9822 275 59.4822 271.5C58.9822 268 56.9822 234.5 67.4822 231C77.9822 227.5 79.9822 229 82.4822 230.5C84.9822 232 83.9822 246.5 82.4822 253C80.9822 259.5 78.4822 294 79.9822 298.5C81.4822 303 93.9822 305.5 96.9822 298.5C99.9822 291.5 96.9822 275.5 96.9822 260.5C96.9822 250.192 94.4822 237 93.9822 226.5C93.4822 216 82.9822 178.5 84.9822 161.5C86.9822 144.5 97.4822 137.5 105.482 138C113.482 138.5 117.482 147.5 118.482 155.5C119.482 163.5 114.982 186.5 113.482 195C111.982 203.5 114.982 214.5 119.982 218C124.982 221.5 130.482 218.5 132.982 212.5C135.482 206.5 132.482 178 132.982 174C133.482 170 132.982 165 139.982 163.5C146.982 162 150.482 164.5 150.482 167C150.482 169.5 150.482 183.5 151.482 189.5C152.482 195.5 153.482 223.5 151.482 230.5C149.482 237.5 140.982 238 132.982 239.5C124.982 241 121.482 252 121.482 255C121.482 258 121.982 296.5 119.982 307C117.982 317.5 115.982 335.5 123.482 344.5C130.982 353.5 138.482 347 143.482 340.5C148.482 334 141.482 303.5 140.982 294C140.482 284.5 141.982 280 146.482 279.5C150.982 279 163.482 278 161.982 287C160.482 296 163.482 308 163.482 320C163.482 332 164.518 352 159 360.5C155.556 365.805 152.5 367.5 142 368C131.512 368.499 125.982 367.5 123.482 369.5C120.982 371.5 121.982 392 121.982 405.5C121.982 416.3 122.982 439.667 123.482 450Z" fill="#E5E7EB"/>
<path d="M276.559 411.5C269.359 458.7 232.225 462.167 214.559 458C201.725 454.167 174.659 439.1 169.059 409.5C162.059 372.5 191.559 358.5 205.059 356C218.559 353.5 285.559 352.5 276.559 411.5Z" fill="#CACED2"/>
<path d="M168.559 361L204.559 363.5H246.559L283.559 352.5H243.559L274.559 331.5L238.559 343.5L246.559 318L229.559 339L224.059 308L220.059 340.5L197.059 321L210.059 342L170.059 340.5L207.059 348L168.559 361Z" fill="#CACED2"/>
<path d="M181.596 409.393C193.373 437.408 174.367 451.63 163.393 455.239C155.152 457.423 135.452 458.239 122.576 444.032C106.48 426.273 117.841 408.87 124.339 403.026C130.837 397.183 166.875 374.375 181.596 409.393Z" fill="#CACED2"/>
<path d="M106.187 417.87L126.56 407.264L149.359 393.307L165.789 375.039L144.075 388.332L153.925 366.631L138.37 385.108L134.239 368.607L131.989 385.656L118.701 370.656L127.33 389.628L108.365 386.686L122.401 393.765L100.188 406.244L122.766 398.019L106.187 417.87Z" fill="#CACED2"/>
<path d="M615 455.5H590.5L569 372L595 420L584.5 327.5L604 420L616.5 288.5V385.5L645 305.5L624.5 395L673.5 331L623 424L678 381.5L615 455.5Z" fill="#CACED2"/>
<path d="M557.875 451.746L537.988 453.868L514.911 402.526L535.336 429.009L532.312 400.67L545.352 423.917L547.684 370.368L558.603 411.441L579.504 366.973L571.49 419.117L599.445 403.061L557.875 451.746Z" fill="#CACED2"/>
<path d="M0 471.825V435.825H52C65.5 435.825 103.5 439.325 114 439.325C124.5 439.325 182 434.325 191.5 433.325C201 432.325 304.5 435.825 324 435.825C343.5 435.825 429.5 439.325 436.5 439.325C443.5 439.325 530 435.825 545 435.825C560 435.825 600.5 435.825 617 439.325C633.5 442.825 638 435.825 651.5 432.825C662.3 430.425 680.667 433.825 688.5 435.825V471.825H0Z" fill="#D1D5DB"/>
</svg>
